<?xml version="1.0" standalone="no"?><!DOCTYPE svg PUBLIC "-//W3C//DTD SVG 1.1//EN" "http://www.w3.org/Graphics/SVG/1.1/DTD/svg11.dtd"><svg t="1595486792367" class="icon" viewBox="0 0 1024 1024" version="1.1" xmlns="http://www.w3.org/2000/svg" p-id="14229" xmlns:xlink="http://www.w3.org/1999/xlink" width="200" height="200"><defs><style type="text/css"></style></defs><path d="M657.2032 332.3904s1.7408-21.6064 6.3488-50.688c1.1264-7.2704 2.4576-15.0528 3.9936-23.04 7.168-51.2 7.168-125.2352 70.2464-135.7824 41.984 0 52.5312 42.1888 73.5232 73.9328a34.816 34.816 0 0 0 25.2928 10.24c27.2384-21.2992 58.7776-10.24 79.7696 10.24 20.992 31.6416 10.24 73.9328 13.0048 112.64a49.664 49.664 0 0 0 11.8784 22.4256A64.6144 64.6144 0 0 0 968.192 368.64a31.9488 31.9488 0 0 1 1.536 52.1216c-60.8256 45.6704-144.7936 29.5936-211.2512 44.3392l-26.4192-34.7136zM263.9872 578.9696s-5.12 0-13.824-0.6144c-58.7776-1.6384-111.3088-1.6384-174.08 19.456s-31.5392 95.0272 23.8592 92.8768a51.2 51.2 0 0 1 22.528 13.5168 22.4256 22.4256 0 0 1 0 22.2208c-3.4816 8.8064-9.4208 18.944-14.848 29.5936-10.24 31.744-20.48 63.488 23.9616 78.0288a81.92 81.92 0 0 0 29.2864-10.8544c19.8656-10.24 39.8336-23.2448 57.344-11.4688 7.4752 5.0176-0.8192 25.1904-1.1264 45.4656a59.1872 59.1872 0 0 0 18.432 36.9664 33.3824 33.3824 0 0 0 43.2128-2.4576c60.6208-55.5008 129.3312-150.6304 76.288-207.9744l-29.4912-34.0992z" fill="#136CA8" p-id="14230"></path><path d="M239.5136 560.4352a58.368 58.368 0 0 1 14.848-25.6c69.7344-70.2464 140.5952-140.0832 225.8944-195.1744 14.4384-9.4208 29.184-18.2272 44.3392-26.2144a289.8944 289.8944 0 0 1 92.16-32.0512 178.4832 178.4832 0 0 1 30.72-1.7408c57.9584-9.1136 100.0448 33.0752 133.632 87.4496a166.7072 166.7072 0 0 1 14.4384 30.72c31.744 92.16-35.328 174.08-109.3632 227.7376-8.4992 7.5776-16.9984 14.7456-25.6 21.4016s-16.384 13.2096-24.8832 18.6368-17.3056 11.8784-26.2144 17.5104a690.0736 690.0736 0 0 1-83.5584 44.544q-23.04 10.24-46.592 19.3536a150.1184 150.1184 0 0 1-107.52 17.5104 158.208 158.208 0 0 1-48.128-19.3536 94.9248 94.9248 0 0 1-31.4368-22.7328A202.0352 202.0352 0 0 1 235.52 576.4096q1.8432-7.8848 3.9936-15.9744z" fill="#F15921" p-id="14231"></path><path d="M469.504 637.5424c32.3584 30.72-9.728 62.2592-40.96 62.2592-10.24-10.24-31.5392-21.0944-31.5392-42.1888a38.8096 38.8096 0 0 1 47.3088-36.4544 39.3216 39.3216 0 0 1 25.1904 16.384zM595.2512 553.6768c32.6656 30.1056-9.3184 61.44-40.96 61.44-10.24-10.24-31.5392-21.0944-31.5392-42.1888s10.24-42.1888 46.8992-35.84a39.6288 39.6288 0 0 1 25.6 16.5888zM706.56 522.9568a64.2048 64.2048 0 0 1-57.9584-2.56 39.8336 39.8336 0 0 1 10.24-63.2832c31.5392-10.24 63.0784 0 61.952 39.2192a39.5264 39.5264 0 0 1-14.2336 26.624z" fill="#FAB414" p-id="14232"></path><path d="M765.44 280.8832a122.88 122.88 0 0 0 62.0544-51.9168l8.192-10.24c5.4272-6.656 10.24-13.4144 15.7696-20.48a56.1152 56.1152 0 0 0-14.9504 8.3968 34.816 34.816 0 0 1-25.2928-10.24c-6.3488-9.5232-11.6736-20.48-17.3056-30.0032-4.1984 8.4992-9.3184 19.1488-14.2336 30.72-1.6384 3.7888-3.2768 7.68-4.9152 11.5712-11.6736 19.3536-11.6736 40.3456-15.2576 62.7712a11.3664 11.3664 0 0 0 5.9392 9.4208zM929.4848 330.8544v-19.968c-5.0176 2.6624-10.24 5.632-15.9744 8.8064s-11.0592 6.4512-16.4864 10.24a51.8144 51.8144 0 0 0-28.2624 21.8112 12.5952 12.5952 0 0 0 7.7824 20.48c25.088 2.8672 50.0736-16.1792 74.3424-10.9568a53.0432 53.0432 0 0 1-9.216-7.5776 49.664 49.664 0 0 1-12.1856-22.8352zM82.944 688.7424a58.2656 58.2656 0 0 0 16.7936 1.9456 51.2 51.2 0 0 1 22.528 13.5168 22.4256 22.4256 0 0 1 0 22.2208c-0.6144 1.6384-1.4336 3.3792-2.2528 5.0176 5.2224-4.096 10.24-8.3968 15.9744-12.6976s10.24-8.704 15.6672-13.1072c15.2576-14.9504 36.1472-25.3952 36.1472-35.9424-20.48-31.5392-83.968 10.8544-89.8048 13.1072zM259.4816 754.4832c-13.5168-8.4992-30.1056 10.24-36.7616 15.872a283.136 283.136 0 0 0-21.0944 20.48c-6.7584 7.168-13.0048 14.336-18.1248 20.48a34.0992 34.0992 0 0 1 33.9968 0c7.4752 5.0176-0.8192 25.1904-1.1264 45.4656v1.7408c3.2768-5.0176 7.0656-10.9568 11.0592-17.408s8.0896-13.4144 12.1856-20.48c10.6496-14.1312 25.4976-62.8736 19.8656-66.1504z" fill="#054F7C" p-id="14233"></path></svg>