<?xml version="1.0" standalone="no"?><!DOCTYPE svg PUBLIC "-//W3C//DTD SVG 1.1//EN" "http://www.w3.org/Graphics/SVG/1.1/DTD/svg11.dtd"><svg t="1595486721351" class="icon" viewBox="0 0 1024 1024" version="1.1" xmlns="http://www.w3.org/2000/svg" p-id="12870" xmlns:xlink="http://www.w3.org/1999/xlink" width="200" height="200"><defs><style type="text/css"></style></defs><path d="M761.6512 299.6224a124.928 124.928 0 0 1-117.4528-69.7344 122.1632 122.1632 0 0 1-24.4736-23.7568A120.5248 120.5248 0 0 1 560.8448 163.84c-84.7872 126.3616-133.4272 227.328-228.6592 368.64q-13.2096 20.48-26.2144 40.96c-34.304 54.784-67.3792 110.592-98.304 168.7552a24.4736 24.4736 0 0 0-1.536 3.6864c-4.1984 12.4928 1.536 29.7984-1.536 42.5984-13.824 55.9104-13.2096 93.7984-16.7936 151.8592v17.6128a22.4256 22.4256 0 0 0 28.8768 20.48c68.1984-28.7744 104.3456-69.2224 161.8944-115.712 2.1504-1.8432 25.8048-1.024 27.7504-2.9696a75.0592 75.0592 0 0 0 16.5888-22.528C462.6432 778.24 492.1344 734.72 532.48 671.4368L549.376 645.12l26.0096-40.96c10.24-15.6672 20.48-31.744 30.72-47.9232A78851.072 78851.072 0 0 0 772.096 299.1104c-3.4816 0.2048-6.8608 0.512-10.4448 0.512z" fill="#136CA8" p-id="12871"></path><path d="M844.5952 163.84C849.92 66.7648 731.7504-2.2528 654.336 47.104a207.5648 207.5648 0 0 0-45.8752 45.9776 2189.5168 2189.5168 0 0 0-49.9712 73.5232l211.1488 136.192 60.7232-94.0032a32.3584 32.3584 0 0 0 2.8672-5.4272A192 192 0 0 0 844.5952 163.84z" fill="#F15921" p-id="12872"></path><path d="M774.656 308.0192a11.1616 11.1616 0 0 0-4.9152-10.24c-13.5168-9.1136-20.48-13.4144-37.9904-25.088-2.3552-1.536-31.4368-17.7152-36.2496-20.48l-13.2096-8.3968c-17.5104-11.264-34.4064-22.4256-49.0496-32.4608l-11.1616-7.68c-7.5776-5.2224-33.1776-20.48-37.1712-23.3472a78.4384 78.4384 0 0 0-37.6832-18.8416c-12.0832 3.9936-29.4912 30.208-29.184 45.3632 0 8.4992 11.1616 15.7696 23.7568 21.6064 4.1984 1.9456 7.9872 4.8128 12.4928 6.656 43.008 25.6 73.216 45.056 116.8384 72.8064l11.776 7.4752 23.2448 14.4384c3.3792 3.1744 17.92 11.0592 20.48 13.6192a155.5456 155.5456 0 0 0 13.824 8.8064c26.4192 0.1024 33.28-30.0032 34.2016-44.2368zM394.24 872.0384a136.704 136.704 0 0 0 13.312-13.2096L405.6064 778.24l-59.904 55.9104 2.4576-93.0816-67.4816 51.2-4.1984-77.312L205.6192 747.52q-6.0416 18.1248-10.24 36.6592c-13.824 55.9104-12.288 111.616-15.7696 169.6768v17.6128a22.4256 22.4256 0 0 0 28.8768 20.48C276.48 963.072 330.24 924.0576 387.7888 877.568z" fill="#FAB414" p-id="12873"></path><path d="M180.3264 934.8096c0 6.3488-0.6144 12.8-1.024 19.2512v17.6128a22.4256 22.4256 0 0 0 28.8768 20.48c12.1856-5.12 23.6544-10.24 35.0208-16.4864z" fill="#3A3635" p-id="12874"></path></svg>