<?xml version="1.0" standalone="no"?><!DOCTYPE svg PUBLIC "-//W3C//DTD SVG 1.1//EN" "http://www.w3.org/Graphics/SVG/1.1/DTD/svg11.dtd"><svg t="1595486639052" class="icon" viewBox="0 0 1024 1024" version="1.1" xmlns="http://www.w3.org/2000/svg" p-id="11634" xmlns:xlink="http://www.w3.org/1999/xlink" width="200" height="200"><defs><style type="text/css"></style></defs><path d="M474.2144 781.7216l5.12-20.48 67.072-262.656a23.8592 23.8592 0 0 0-46.1824-11.6736l-25.2928 98.816-11.4688 45.056-12.0832 47.4112-12.0832 47.4112-11.4688 44.9536a263.168 263.168 0 0 1 46.3872 11.1616zM604.16 169.0624a23.6544 23.6544 0 0 1-17.2032-28.7744l3.1744-12.5952c9.0112-35.328 9.216-84.1728 43.9296-75.4688s-3.072 60.3136-1.024 99.7376A23.6544 23.6544 0 0 1 604.16 169.0624z" fill="#136CA8" p-id="11635"></path><path d="M103.2192 483.328V481.28c4.4032-11.1616 2.9696-24.064 7.0656-35.6352a428.4416 428.4416 0 0 1 13.312-53.1456c38.7072-133.12 143.36-253.44 289.28-279.8592a311.9104 311.9104 0 0 1 50.3808-4.1984 319.2832 319.2832 0 0 1 51.2 4.096 485.376 485.376 0 0 1 49.0496 5.5296 556.8512 556.8512 0 0 1 230.6048 95.6416 336.2816 336.2816 0 0 1 32.0512 28.16 281.8048 281.8048 0 0 1 81.1008 148.8896 448.512 448.512 0 0 1 10.24 51.2 585.728 585.728 0 0 1-1.3312 154.5216c-0.9216 7.4752-1.8432 14.6432-2.8672 21.4016s-4.608 39.424-6.8608 49.8688l-1.6384 9.0112a10.24 10.24 0 0 1-19.3536 3.6864 492.544 492.544 0 0 0-15.2576-22.8352l-1.024-1.3312a162.2016 162.2016 0 0 0-19.456-19.3536 107.1104 107.1104 0 0 0-56.6272-25.4976A115.8144 115.8144 0 0 0 716.1856 634.88c-6.656 4.5056-11.776 10.24-17.2032 13.312-14.2336 8.8064-20.48-1.3312-23.6544-8.2944a184.32 184.32 0 0 0-11.5712-21.9136 105.2672 105.2672 0 0 0-71.68-52.6336 99.84 99.84 0 0 0-76.0832 23.8592 26.624 26.624 0 0 1-39.2192-6.9632 113.8688 113.8688 0 0 0-69.2224-53.6576c-40.0384-10.24-78.4384 5.3248-101.4784 18.3296a26.7264 26.7264 0 0 1-35.5328-8.6016c-15.1552-23.2448-42.1888-56.6272-76.9024-63.8976-28.672-6.0416-56.32 7.3728-76.1856 21.4016-10.1376 6.656-17.5104-0.9216-14.2336-12.4928z" fill="#FAB414" p-id="11636"></path><path d="M590.336 122.88c-6.0416 2.1504-12.0832 4.8128-18.8416 7.2704a353.9968 353.9968 0 0 0-36.6592 15.4624 418.0992 418.0992 0 0 0-65.1264 36.7616A320.4096 320.4096 0 0 0 440.32 205.6192a434.8928 434.8928 0 0 0-68.9152 94.9248c-6.0416 11.0592-11.776 22.3232-17.408 33.792-41.984 67.9936-60.0064 133.12-75.5712 211.8656a26.7264 26.7264 0 0 0 27.0336 0c23.1424-13.0048 61.44-28.4672 101.4784-18.3296a113.8688 113.8688 0 0 1 69.2224 53.6576 25.9072 25.9072 0 0 0 15.36 11.8784 153.6 153.6 0 0 1-1.2288-28.7744c2.1504-16.2816 4.5056-31.9488 7.0656-47.3088a1871.36 1871.36 0 0 1 52.8384-220.9792q5.5296-18.1248 11.5712-36.0448a944.3328 944.3328 0 0 1 44.2368-108.1344 222.208 222.208 0 0 1 14.7456-21.6064q-15.1552-4.1984-30.4128-7.68zM849.3056 636.928a162.2016 162.2016 0 0 1 19.456 19.3536l1.024 1.3312c5.7344 7.9872 10.24 15.5648 15.2576 22.8352a10.24 10.24 0 0 0 19.3536-3.6864l1.6384-9.0112c2.1504-10.24 5.8368-43.4176 6.8608-49.8688s1.9456-13.9264 2.8672-21.4016a585.728 585.728 0 0 0 1.3312-154.5216 448.512 448.512 0 0 0-10.24-51.2 281.7024 281.7024 0 0 0-80.1792-148.8896 336.1792 336.1792 0 0 0-32.0512-28.16 566.5792 566.5792 0 0 0-163.84-80.5888c61.6448 80.5888 75.776 167.936 75.776 265.4208 0 14.848-0.9216 29.5936-1.024 44.4416s0 29.3888 0.6144 43.9296c-2.1504 15.4624-4.8128 30.72-7.68 45.568s-5.9392 29.7984-9.1136 44.4416a424.96 424.96 0 0 0-0.9216 48.64c0 8.6016 1.1264 17.2032 2.1504 25.8048a20.48 20.48 0 0 0 8.8064-3.2768c5.4272-3.3792 10.24-8.8064 17.2032-13.312a115.8144 115.8144 0 0 1 76.4928-23.04 107.1104 107.1104 0 0 1 56.2176 25.1904zM427.3152 772.4032l-5.2224 20.48C409.6 840.9088 411.7504 921.6 343.04 922.3168a86.4256 86.4256 0 0 1-30.0032-8.704 46.2848 46.2848 0 0 1-10.8544-17.6128c-9.6256-26.3168-13.0048-53.8624-28.7744-58.2656-46.1824-11.6736-32.8704 68.608-2.4576 102.4a89.8048 89.8048 0 0 0 20.48 17.408 97.5872 97.5872 0 0 0 27.8528 11.6736l5.4272 1.2288a129.3312 129.3312 0 0 0 32.4608 1.6384 90.5216 90.5216 0 0 0 26.8288-6.3488c77.0048-44.3392 71.68-119.0912 89.8048-182.4768l2.7648-10.752-11.9808-3.072a37.1712 37.1712 0 0 0-34.5088-8.3968z" fill="#F15921" p-id="11637"></path></svg>