<?xml version="1.0" standalone="no"?><!DOCTYPE svg PUBLIC "-//W3C//DTD SVG 1.1//EN" "http://www.w3.org/Graphics/SVG/1.1/DTD/svg11.dtd"><svg t="1595486664312" class="icon" viewBox="0 0 1024 1024" version="1.1" xmlns="http://www.w3.org/2000/svg" p-id="12041" xmlns:xlink="http://www.w3.org/1999/xlink" width="200" height="200"><defs><style type="text/css"></style></defs><path d="M541.797783 725.91977c-15.871671-127.99735 107.72257-230.088037 229.268854-189.026487a191.79123 191.79123 0 0 1 30.719364 8.089433 168.239717 168.239717 0 0 1 23.961104 7.987034 16.998048 16.998048 0 0 1 12.492542 23.039523q-2.252753 5.32469-4.812701 10.239788a202.747803 202.747803 0 0 1-16.076467 26.828245A182.677819 182.677819 0 0 1 798.714065 638.47198a141.513871 141.513871 0 0 1-14.233305 18.84121c-63.28189 62.974696-145.712184 52.837306-228.244876 68.401785-9.011013 0.307194-14.438101 0.204796-14.438101 0.204795zM220.370837 497.367701A19.660393 19.660393 0 0 0 194.566571 510.065038a236.129512 236.129512 0 0 0-7.372648 34.200892 210.734838 210.734838 0 0 0-2.047957 27.954622 110.794507 110.794507 0 0 0-0.819183 24.575491 112.637668 112.637668 0 0 0 4.403109 23.756308 135.062804 135.062804 0 0 0 8.601422 21.708351 151.856057 151.856057 0 0 0 12.390143 20.479576c37.68242 57.547609 120.112714 88.164575 194.555973 76.491217a108.439355 108.439355 0 0 0 13.004531-1.94556 218.414679 218.414679 0 0 0-2.047958-27.442632 168.342115 168.342115 0 0 0-1.126377-36.658441 161.993447 161.993447 0 0 0-8.601422-33.586505c-20.479576-71.678516-86.526209-112.637668-152.16325-133.117244-9.420605-2.969539-18.738812-5.427088-28.057019-7.577444z" fill="#1C8E37" p-id="12042"></path><path d="M494.387565 761.349437c5.017496-89.188554 9.420605-178.889097 29.388191-269.613619 2.662345-21.196361 5.119894-42.49512 7.27025-63.896277s3.891119-42.904712 5.222292-64.613063c0-10.239788-20.479576-20.479576-33.791301 5.529486q-9.113411 27.647428-16.076467 55.602049c-4.710302 18.534016-8.70382 37.170431-12.287746 55.909242-15.359682 89.495747-25.497072 177.660322-33.279311 266.234489-36.556043-54.680468-79.972745-105.572215-141.616268-138.441934 50.482155 58.366792 87.242994 123.594242 138.339536 178.889097-5.939077 75.467238-10.239788 151.446465-14.745295 229.371252 0 10.239788 30.719364 10.239788 40.959152 0a1201.024739 1201.024739 0 0 0 26.828245-198.447092c2.764743-4.710302 5.529486-9.523003 8.396626-14.130908 47.205423-83.351875 139.875505-134.448417 211.963613-195.682349C624.637668 613.794091 552.959152 690.797297 494.387565 761.349437z" fill="#3A3635" p-id="12043"></path><path d="M682.902062 144.914197a238.587061 238.587061 0 0 0-48.638993 4.095915c1.331172-4.505507 2.559947-9.113411 3.583926-13.823714a124.925414 124.925414 0 0 0-4.710303-45.976648C609.380384 16.200061 526.950091-24.656693 465.101771 16.200061a130.4549 130.4549 0 0 0-53.758887 112.637669l-4.300711-1.023979a123.594242 123.594242 0 0 0-44.95267-9.420605c-71.678516 0-134.038825 71.166527-113.354453 142.53785a112.637668 112.637668 0 0 0 74.648054 71.678516 131.683674 131.683674 0 0 0-22.732329 39.935173c-21.093963 72.600097 20.479576 154.211208 102.39788 154.211208 39.218388 0 69.118569-27.749826 98.506761-56.728426 1.535968 1.843162 3.071936 3.583926 4.812701 5.32469a131.88847 131.88847 0 0 0 30.719364 34.815279 104.753032 104.753032 0 0 0 71.678516 26.828245C689.353129 536.688487 749.972674 430.706681 696.316185 368.653566c48.536595-15.154886 88.471769-51.19894 96.765997-109.975324 9.113411-61.541126-49.867768-115.300013-110.18012-113.764045z m-158.511918 99.940331a138.64673 138.64673 0 0 0 4.710302 77.719992 83.351875 83.351875 0 0 0-12.492541 10.239788c-2.047958 2.764743-4.095915 5.631883-6.041475 8.499024a138.441934 138.441934 0 0 0-44.95267-41.675938 124.515823 124.515823 0 0 0 20.479576-48.536595c0.716785-3.993517 1.126377-7.884637 1.433571-11.775756a118.576745 118.576745 0 0 0 36.863237 5.529485z" fill="#FAB414" p-id="12044"></path><path d="M663.139271 301.582954c-2.355151 81.918304-84.785445 143.357033-156.873552 133.117245-61.438728-10.239788-113.354454-30.719364-133.936428-92.158093-30.719364-81.918304 10.239788-183.701797 103.012268-204.078975 61.438728-10.239788 164.860587 10.239788 180.015474 106.596193a137.520353 137.520353 0 0 1 7.782238 56.52363z" fill="#136CA8" p-id="12045"></path><path d="M620.132162 256.015897c10.239788 0.921581 10.239788-14.438101 0-15.257284-14.950091-1.331172-29.900181-2.355151-44.747874-2.969538 1.843162-7.884637 3.481528-15.769274 5.529485-23.551513a7.679841 7.679841 0 0 0-14.95009-4.095915c-2.355151 9.011013-4.300711 18.124425-6.348669 27.237836q-37.170431-0.819183-74.238463 1.228775c1.638366-7.782239 3.276732-15.564478 5.222292-23.346717a7.679841 7.679841 0 0 0-14.950091-4.095915c-2.355151 9.420605-4.300711 18.943608-6.348668 28.46661-12.390144 0.819183-24.882685 1.94556-37.375226 3.174335-10.239788 1.023979-10.239788 16.383661 0 15.257284 11.468563-1.228775 22.834727-2.150355 34.303289-2.969539Q460.80106 286.735261 457.831521 317.454625c-11.468563 0-22.937125 1.023979-34.508085 1.740764-10.239788 0.614387-10.239788 15.974069 0 15.257285s22.117942-1.228775 33.176913-1.638366c-0.716785 10.239788-1.43357 21.093963-1.740764 31.743342s15.154886 10.239788 15.46208 0 0.921581-21.605953 1.740764-32.35773c23.961104-0.716785 47.81981-0.716785 71.678516 0a899.565379 899.565379 0 0 0-4.403109 52.939704c0 10.239788 14.950091 10.239788 15.46208 0 0.819183-17.510038 2.457549-34.917677 4.403109-52.325316 18.124425 0.819183 36.351248 2.047958 54.57807 3.788721 10.239788 1.023979 10.239788-14.335703 0-15.257284-17.612435-1.740764-35.122473-2.969539-52.63251-3.788722 2.764743-21.503555 6.246271-43.00711 10.751777-64.305868q24.1659 1.023979 48.3318 2.764742z m-74.545657 61.438728q-36.146452-1.126377-72.292904 0c2.047958-20.479576 4.8127-41.778335 8.806218-62.565104q36.965635-2.150355 73.93127-1.433571A834.133133 834.133133 0 0 0 545.586505 317.454625z" fill="#3A3635" p-id="12046"></path></svg>