<?xml version="1.0" standalone="no"?><!DOCTYPE svg PUBLIC "-//W3C//DTD SVG 1.1//EN" "http://www.w3.org/Graphics/SVG/1.1/DTD/svg11.dtd"><svg t="1595486756927" class="icon" viewBox="0 0 1024 1024" version="1.1" xmlns="http://www.w3.org/2000/svg" p-id="13550" xmlns:xlink="http://www.w3.org/1999/xlink" width="200" height="200"><defs><style type="text/css"></style></defs><path d="M464.1792 560.64C471.04 665.6 371.4048 713.5232 276.48 713.5232a182.1696 182.1696 0 0 1-163.84-165.0688 172.8512 172.8512 0 0 1 77.7216-142.7456c95.0272-62.464 202.9568 1.536 260.9152 92.16a171.6224 171.6224 0 0 1 12.9024 62.7712zM911.36 557.4656c-11.1616 119.7056-133.12 194.56-227.9424 167.2192C614.4 715.6736 561.9712 634.88 570.6752 554.496c8.704-44.7488 26.0096-89.6 69.3248-116.4288 95.3344-62.6688 208.1792-38.5024 257.9456 58.1632A143.36 143.36 0 0 1 911.36 557.4656z" fill="#1C8E37" p-id="13551"></path><path d="M745.5744 207.9744c11.6736 132.096-102.4 223.232-215.7568 236.2368C403.456 444.2112 251.904 340.0704 277.0944 184.32 302.3872 53.6576 416.1536-11.3664 542.72 1.6384c75.776 13.0048 151.6544 52.0192 187.4944 130.048a159.5392 159.5392 0 0 1 15.36 76.288z" fill="#1C8E37" p-id="13552"></path><path d="M772.8128 516.1984c-22.1184 11.4688-43.8272 24.064-65.4336 36.864L686.08 565.9648l-10.24 6.0416c-2.2528-23.6544 5.9392-51.2-8.9088-75.9808a156.2624 156.2624 0 0 0-16.2816 90.624 1237.504 1237.504 0 0 0-118.8864 73.728c0-15.7696 0.7168-30.72 1.4336-45.9776v-92.16c0.9216-74.3424 0.7168-156.2624-2.4576-235.52a65.024 65.024 0 0 0 51.9168-76.4928c-19.7632 20.48-35.1232 32.9728-53.9648 36.864-2.1504-37.7856-4.9152-74.752-8.9088-109.568-8.8064 4.9152-14.9504 49.8688-19.0464 109.4656-2.4576 0-4.7104-0.7168-7.2704-1.3312a150.6304 150.6304 0 0 1-57.9584-30.72c-2.8672 23.8592 40.1408 60.2112 48.2304 63.3856a79.0528 79.0528 0 0 0 14.848 6.0416c-4.1984 83.456-5.12 182.784-4.1984 243.3024 0 29.184 0.7168 58.368 0 87.8592v12.1856a1073.5616 1073.5616 0 0 0-106.5984-62.3616c7.9872-26.3168 3.7888-56.1152-24.1664-67.7888a125.44 125.44 0 0 1-4.3008 53.8624 275.8656 275.8656 0 0 0-54.8864-21.0944 155.5456 155.5456 0 0 0-51.2 3.584s34.7136 14.2336 40.96 17.5104c17.6128 8.704 33.8944 16.384 49.5616 23.7568a87.4496 87.4496 0 0 1-51.9168 19.8656c18.6368 20.48 53.3504 30.72 77.9264 3.1744a74.9568 74.9568 0 0 0 6.0416-7.7824 544.6656 544.6656 0 0 1 116.736 69.5296h1.536C491.52 785.7152 491.52 871.424 498.4832 1003.52a18.2272 18.2272 0 0 0 34.304 10.24c9.5232-23.2448-1.9456-181.6576-1.536-322.2528 27.5456-14.4384 80.384-44.2368 129.8432-75.264A66.8672 66.8672 0 0 0 694.784 645.12c23.2448 6.9632 42.7008-7.4752 62.2592-21.9136-37.9904-3.2768-58.5728-11.4688-69.632-22.7328 17.92-11.6736 34.6112-23.1424 48.4352-33.5872 36.2496-27.8528 38.6048-44.6464 36.9664-50.688z" fill="#3A3635" p-id="13553"></path></svg>