<?xml version="1.0" standalone="no"?><!DOCTYPE svg PUBLIC "-//W3C//DTD SVG 1.1//EN" "http://www.w3.org/Graphics/SVG/1.1/DTD/svg11.dtd"><svg t="1595486799006" class="icon" viewBox="0 0 1024 1024" version="1.1" xmlns="http://www.w3.org/2000/svg" p-id="14366" xmlns:xlink="http://www.w3.org/1999/xlink" width="200" height="200"><defs><style type="text/css"></style></defs><path d="M38.6048 487.936c54.3744-40.1408 116.224-29.7984 174.08-32.5632h47.104c1.9456-10.24 4.3008-20.48 7.2704-30.72s6.4512-20.48 10.24-30.0032a262.0416 262.0416 0 0 1 61.44-106.0864 221.2864 221.2864 0 0 1 22.2208-19.7632c81.92-60.5184 195.6864-50.0736 285.4912-44.544 8.6016 0 17.2032 1.3312 25.8048 2.56 77.5168 11.1616 153.6 53.1456 165.1712 136.192 2.4576 9.4208 4.608 18.944 6.5536 28.672 5.632 29.0816 8.704 58.9824 11.776 87.04a91.5456 91.5456 0 0 0 29.0816-4.3008c7.168 0.7168 14.848 1.024 22.8352 1.2288s16.1792 0 24.2688 0.6144c57.856-7.9872 99.0208 54.3744 90.9312 119.296a124.8256 124.8256 0 0 1-4.1984 25.8048 94.6176 94.6176 0 0 1-49.4592 60.7232l-27.136 4.8128a1557.7088 1557.7088 0 0 1-184.32 16.9984c-14.0288 0-28.16 0.8192-42.496 1.024-24.576 2.1504-49.3568 3.4816-74.3424 3.9936h-37.4784c-18.6368 1.1264-37.0688 1.536-55.296 1.536s-36.2496 0-54.1696-1.3312c-45.9776-3.6864-92.9792-5.3248-140.3904-6.8608l-47.5136-1.6384c-95.8464-3.2768-281.4976 20.48-303.4112-94.72a155.3408 155.3408 0 0 1 1.3312-58.1632 138.752 138.752 0 0 1 13.2096-32.1536 117.8624 117.8624 0 0 1 21.4016-27.648z" fill="#136CA8" p-id="14367"></path><path d="M363.1104 694.4768c-2.1504 54.8864-53.6576 106.8032-105.1648 106.8032S154.8288 749.3632 154.8288 697.344c0-41.5744 30.72-83.1488 61.44-104.0384a104.96 104.96 0 0 1 138.24 60.6208 103.8336 103.8336 0 0 1 8.6016 40.5504z" fill="#FAB414" p-id="14368"></path><path d="M315.8016 694.272c-6.3488 44.7488-57.856 75.8784-99.1232 44.7488-30.72-30.72-10.24-104.0384 40.96-104.0384a88.4736 88.4736 0 0 1 41.5744 19.456 56.32 56.32 0 0 1 16.5888 39.8336z" fill="#F15921" p-id="14369"></path><path d="M908.4928 701.0304a97.9968 97.9968 0 0 1-32.0512 69.12c-40.96 30.72-92.7744 52.0192-154.624 10.24-61.44-62.3616-30.72-166.4 40.96-197.632 61.44-10.24 123.6992 30.72 143.36 91.0336a96.0512 96.0512 0 0 1 2.3552 27.2384zM318.0544 458.1376s1.7408-5.8368 5.0176-15.1552c1.6384-4.7104 3.6864-10.24 6.144-16.384 21.504-82.8416 73.1136-145.2032 151.8592-151.04a157.7984 157.7984 0 0 1 27.7504 0q6.9632 0.7168 13.824 2.048t13.6192 3.2768a498.7904 498.7904 0 0 1 5.8368 132.5056c0 5.4272 0 10.8544-0.512 16.0768a148.7872 148.7872 0 0 1-1.8432 15.1552v19.6608l-20.48-0.6144c-4.1984 0-163.84-5.9392-168.0384-5.8368h-23.6544zM597.2992 274.5344c-3.3792 4.5056-4.3008 168.0384-9.4208 194.048H643.584c21.2992 0.7168 42.3936 1.8432 66.9696 4.8128 5.7344 0.8192 71.0656 4.3008 80.5888-3.072v-12.6976a243.2 243.2 0 0 0-5.2224-58.368 153.6 153.6 0 0 0-4.608-15.9744 146.0224 146.0224 0 0 0-25.4976-47.3088c-37.888-40.96-75.5712-62.3616-144.9984-62.0544-8.0896 0-13.5168 0.6144-13.5168 0.6144zM40.96 556.1344a16.2816 16.2816 0 0 1-12.9024-25.3952c17.92-26.2144 43.52-47.0016 75.1616-30.72 30.72 20.48 8.6016 39.8336-11.9808 50.2784a112.64 112.64 0 0 1-43.8272 6.3488z" fill="#FAB414" p-id="14370"></path><path d="M856.1664 684.9536c10.24 53.9648-31.232 64.4096-62.1568 64.4096-51.2 0-71.68-62.3616-40.96-104.0384 20.48-20.48 51.2-20.48 86.6304 0a53.0432 53.0432 0 0 1 16.4864 39.6288z" fill="#F15921" p-id="14371"></path></svg>