<?xml version="1.0" standalone="no"?><!DOCTYPE svg PUBLIC "-//W3C//DTD SVG 1.1//EN" "http://www.w3.org/Graphics/SVG/1.1/DTD/svg11.dtd"><svg t="1595486618997" class="icon" viewBox="0 0 1024 1024" version="1.1" xmlns="http://www.w3.org/2000/svg" p-id="11361" xmlns:xlink="http://www.w3.org/1999/xlink" width="200" height="200"><defs><style type="text/css"></style></defs><path d="M423.6288 518.4512a271.9744 271.9744 0 0 1-4.7104-39.936c1.9456-58.7776 1.9456-121.2416 22.6304-183.6032s123.904-62.3616 154.8288-10.24c61.44 103.936-61.44 176.7424-137.1136 213.6064-20.992 12.1856-35.6352 20.1728-35.6352 20.1728z" fill="#147228" p-id="11362"></path><path d="M370.7904 428.1344A376.0128 376.0128 0 0 1 334.7456 389.12c-10.9568-13.7216-20.48-27.8528-30.72-42.1888-36.7616-45.1584-70.7584-98.7136-78.4384-155.3408a171.6224 171.6224 0 0 1-1.2288-34.304C225.28 66.1504 337.92 3.7888 410.624 66.1504c40.96 41.5744 40.96 103.936 39.6288 156.672a221.0816 221.0816 0 0 1-5.5296 27.4432 186.7776 186.7776 0 0 1-8.8064 25.2928c-3.6864 12.9024-8.0896 25.7024-12.9024 38.7072s-10.24 26.0096-15.9744 39.2192c-4.9152 10.24-10.24 20.48-15.7696 29.9008-11.776 27.136-20.48 44.7488-20.48 44.7488zM615.6288 452.4032a263.2704 263.2704 0 0 1-17.7152-40.96 395.776 395.776 0 0 1-27.7504-75.3664c-3.6864-14.0288-6.7584-28.672-9.1136-43.3152-26.624-91.2384 14.7456-236.7488 128.2048-205.6192 103.2192 20.48 92.8768 135.168 40.2432 212.7872-5.7344 11.6736-11.6736 23.3472-18.0224 34.816a285.184 285.184 0 0 1-71.68 89.7024c-14.6432 17.1008-24.1664 27.9552-24.1664 27.9552z" fill="#1C8E37" p-id="11363"></path><path d="M346.4192 552.2432a546.9184 546.9184 0 0 1-81.2032-20.48c-14.336-4.5056-29.184-9.6256-43.7248-15.2576-89.6-13.5168-161.8944-127.8976-89.6-200.704C235.52 232.5504 337.92 388.5056 344.2688 480.5632A321.2288 321.2288 0 0 1 348.16 532.48a194.56 194.56 0 0 1-1.7408 19.7632zM646.4512 509.44A192.4096 192.4096 0 0 1 657.8176 481.28 346.624 346.624 0 0 1 696.32 399.36a294.4 294.4 0 0 1 61.44-70.7584c76.1856-64.9216 189.7472 18.2272 158.72 101.4784-30.72 93.5936-144.4864 83.1488-227.7376 79.5648-25.1904 0.3072-42.2912-0.2048-42.2912-0.2048z" fill="#1C8E37" p-id="11364"></path><path d="M686.08 911.36c-20.48 66.4576-130.4576 70.3488-208.896 71.68-16.0768 0-39.2192-1.1264-55.7056-3.072-21.2992-2.56-83.8656-5.2224-104.5504-46.7968-35.6352-71.68-40.1408-166.1952-40.96-249.6512a19.3536 19.3536 0 0 1 18.7392-24.576h54.4768c14.1312 0 28.16 0.6144 41.8816 1.1264s26.5216 1.2288 38.912 2.2528h66.8672c36.4544-3.072 74.5472-15.5648 113.152-17.2032a159.9488 159.9488 0 0 1 38.7072 2.6624 105.2672 105.2672 0 0 1 35.328 21.9136 110.4896 110.4896 0 0 1 22.528 33.1776c6.0416 10.0352-3.3792 151.7568-20.48 208.4864z" fill="#136CA8" p-id="11365"></path><path d="M503.5008 378.0608a107.008 107.008 0 0 0-43.9296 43.4176 89.7024 89.7024 0 0 0-7.8848-46.08c-16.2816 18.432-8.4992 45.1584-6.5536 72.704-5.3248 10.24-10.752 21.1968-17.2032 31.8464-4.096 8.192-8.0896 16.2816-11.9808 24.4736-6.4512 13.6192-12.5952 27.3408-18.5344 40.96-10.24-80.6912-16.2816-165.2736-28.3648-244.8384 9.1136-20.48 39.936-23.04 40.96-51.2a60.2112 60.2112 0 0 0-44.7488 27.4432 750.2848 750.2848 0 0 0-32.9728-131.6864 51.9168 51.9168 0 0 1-2.2528 15.4624c5.632 36.9664 10.24 77.7216 14.4384 120.4224a35.9424 35.9424 0 0 1-11.6736-8.192c-13.5168-13.6192-20.48-34.0992-38.4-14.9504 14.5408 17.6128 26.2144 38.7072 51.2 39.1168 7.8848 82.6368 14.5408 172.1344 24.3712 257.7408a386.6624 386.6624 0 0 0-81.92-83.0464c-4.9152-16.6912 1.3312-41.984-20.48-40.96a154.624 154.624 0 0 1 9.4208 32.8704 205.9264 205.9264 0 0 0-60.7232-29.3888c46.3872 49.7664 108.3392 98.304 157.696 150.2208 4.608 36.4544 10.24 71.68 16.0768 105.6768 0 0 30.72 0 30.72-10.24-7.168-28.8768-12.8-59.2896-17.5104-90.4192a12.4928 12.4928 0 0 0 2.4576-3.8912q10.24-24.576 20.48-48.5376 5.4272-11.9808 11.0592-23.8592a201.4208 201.4208 0 0 1 26.3168-54.5792h0.9216c25.7024-14.1312 56.7296-5.5296 67.072-31.3344-15.7696 4.4032-34.304 2.048-49.9712 3.3792a159.9488 159.9488 0 0 0 21.9136-52.5312zM792.4736 419.84a366.6944 366.6944 0 0 0-56.5248 25.1904 35.7376 35.7376 0 0 0-1.8432-36.864c-6.5536 19.6608-27.4432 34.5088-22.6304 50.5856-30.72 17.8176-60.3136 37.1712-92.672 53.248l-2.6624 1.7408c10.24-49.9712 19.7632-105.6768 28.9792-161.0752 24.4736-19.2512 50.2784-30.72 59.5968-58.4704-20.48 6.7584-40.96 13.312-54.784 29.5936 6.3488-39.5264 12.1856-78.1312 16.9984-113.664-10.24 0-1.3312-5.5296-20.48 30.72-21.9136 99.328-36.1472 207.1552-66.2528 317.44-2.56 9.216-5.9392 27.2384-7.7824 36.6592-3.584 18.8416-5.0176 25.1904-8.4992 44.032s23.1424 28.0576 26.7264 8.2944 6.9632-37.5808 10.24-56.4224l5.3248-28.16 1.6384-8.192L634.88 538.8288a861.9008 861.9008 0 0 1 79.1552-55.5008 12.3904 12.3904 0 0 0 7.7824 2.56h29.696c10.24 0.7168 30.72 0.7168 40.96-7.3728-10.24-7.9872-30.72-7.9872-40.96-10.24L737.28 467.968c43.1104-27.648 75.9808-49.664 55.1936-48.128z" fill="#3A3635" p-id="11366"></path><path d="M705.1264 712.2944c-13.1072-0.7168-29.9008-1.1264-47.2064-1.024-123.4944-10.9568-257.6384 10.24-385.536 4.1984a30.72 30.72 0 0 1-21.4016-20.48c-7.8848-54.4768 21.7088-68.7104 59.6992-70.3488a301.3632 301.3632 0 0 1 39.8336 1.536c80.7936 1.536 174.08 1.536 257.7408-2.3552 10.24 1.024 22.6304 1.024 35.84 1.8432 39.8336 2.1504 85.6064 10.24 82.8416 65.2288a22.3232 22.3232 0 0 1-21.8112 21.4016z" fill="#F15921" p-id="11367"></path></svg>