<?xml version="1.0" standalone="no"?><!DOCTYPE svg PUBLIC "-//W3C//DTD SVG 1.1//EN" "http://www.w3.org/Graphics/SVG/1.1/DTD/svg11.dtd"><svg t="1595486608894" class="icon" viewBox="0 0 1024 1024" version="1.1" xmlns="http://www.w3.org/2000/svg" p-id="11224" xmlns:xlink="http://www.w3.org/1999/xlink" width="200" height="200"><defs><style type="text/css"></style></defs><path d="M930.5088 653.5168c-9.6256 49.0496-61.44 111.104-113.152 69.7344-40.96-40.96-30.72-93.0816-10.24-134.4512 30.72-72.3968 124.2112-40.96 127.8976 27.8528a121.4464 121.4464 0 0 1-4.5056 36.864zM224.1536 630.272c7.3728 43.6224-3.3792 94.208-48.2304 105.7792C88.4736 749.2608 61.44 627.2 94.6176 570.88c28.8768-36.1472 110.1824-18.944 119.5008 23.6544a126.976 126.976 0 0 1 10.0352 35.7376z" fill="#FFCCC0" p-id="11225"></path><path d="M879.4112 613.888a307.2 307.2 0 0 1 0 41.6768 296.0384 296.0384 0 0 1-5.12 39.8336 341.504 341.504 0 0 1-22.2208 81.3056 330.3424 330.3424 0 0 1-18.432 37.888 277.7088 277.7088 0 0 1-73.9328 83.968A381.3376 381.3376 0 0 1 716.8 923.8528a375.9104 375.9104 0 0 1-45.4656 19.1488 969.216 969.216 0 0 1-194.56 19.456c-16.384 0-32.6656-1.1264-48.7424-2.6624-139.1616-7.9872-253.0304-90.7264-282.4192-228.6592a339.7632 339.7632 0 0 1-10.24-47.5136 332.1856 332.1856 0 0 1 11.3664-143.872A359.2192 359.2192 0 0 1 174.08 460.8a370.0736 370.0736 0 0 1 639.6928-51.2 362.496 362.496 0 0 1 33.8944 61.44 372.0192 372.0192 0 0 1 21.6064 68.5056 476.5696 476.5696 0 0 1 10.1376 74.3424z" fill="#FFE0D7" p-id="11226"></path><path d="M265.5232 699.2896c0 19.8656 101.4784 45.6704 80.7936-16.384-10.24-20.48-40.96-10.24-66.56-1.024a22.4256 22.4256 0 0 0-14.2336 17.408zM741.376 696.32a56.832 56.832 0 0 1-69.0176 23.04c-10.24-9.3184-20.48-27.9552-10.24-37.2736 20.48-18.6368 40.96-9.3184 64.9216-1.2288 8.6016 3.6864 14.1312 9.1136 14.336 15.4624z" fill="#FAB414" p-id="11227"></path><path d="M869.1712 334.7456a343.4496 343.4496 0 0 0-31.3344-51.9168 294.7072 294.7072 0 0 0-30.72-38.5024l31.4368-6.7584c51.2-9.6256 103.2192-9.6256 155.0336-30.72-56.7296-47.2064-165.0688-42.7008-201.9328 21.9136-95.8464-85.9136-234.2912-88.7808-359.8336-57.344a196.7104 196.7104 0 0 0-56.9344-5.2224 214.1184 214.1184 0 0 0-55.296 10.24 246.6816 246.6816 0 0 0-51.2 23.9616A289.1776 289.1776 0 0 0 222.1056 235.52C206.848 161.3824 97.0752 139.3664 30.72 186.6752c51.712 30.72 113.8688 30.72 164.864 60.3136l10.9568 3.8912a296.96 296.96 0 0 0-66.048 285.7984c2.2528 11.8784 4.1984 18.7392 4.1984 18.7392s14.9504-10.24 40.96-24.9856c13.1072-7.3728 28.8768-15.7696 47.104-24.4736s38.6048-17.7152 60.928-26.3168c12.9024-4.9152 16.2816-62.7712 30.72-67.2768 7.0656-2.2528 16.6912 8.8064 26.5216 19.968s19.6608 22.4256 27.2384 20.48a582.0416 582.0416 0 0 1 255.3856 2.2528q24.9856 5.5296 49.664 12.8c62.2592 28.8768 134.656 28.8768 186.4704 80.5888a290.7136 290.7136 0 0 0 15.0528-161.792 270.0288 270.0288 0 0 0-15.5648-51.9168z" fill="#3A3635" p-id="11228"></path><path d="M344.064 608.3584c31.8464-32.256 51.2-10.24 80.5888-0.9216a12.288 12.288 0 0 0 14.7456-16.6912C417.792 540.672 348.16 552.96 320.512 589.9264c-10.24 20.48 0 30.72 23.552 18.432zM591.6672 605.184c39.3216-46.2848 70.4512 26.0096 80.7936 15.6672 30.72-51.2-72.4992-82.7392-103.5264-30.72-10.24 30.72 10.24 20.48 22.7328 15.36z" fill="#3A3635" p-id="11229"></path><path d="M478.208 694.5792C556.2368 650.9568 586.0352 787.5584 542.72 819.2a72.9088 72.9088 0 0 1-40.3456 13.5168c-46.08-15.6672-58.7776-64.7168-44.544-109.056a58.9824 58.9824 0 0 1 20.3776-29.0816z" fill="#F15921" p-id="11230"></path></svg>