<?xml version="1.0" standalone="no"?><!DOCTYPE svg PUBLIC "-//W3C//DTD SVG 1.1//EN" "http://www.w3.org/Graphics/SVG/1.1/DTD/svg11.dtd"><svg t="1595486599342" class="icon" viewBox="0 0 1024 1024" version="1.1" xmlns="http://www.w3.org/2000/svg" p-id="11087" xmlns:xlink="http://www.w3.org/1999/xlink" width="200" height="200"><defs><style type="text/css"></style></defs><path d="M937.7792 653.0048c-1.1264 39.0144-43.7248 81.1008-89.7024 74.24a50.0736 50.0736 0 0 1-23.2448-13.5168c-19.5584-19.6608-27.4432-55.9104-17.7152-93.4912a127.1808 127.1808 0 0 1 14.2336-33.9968 102.4 102.4 0 0 1 21.2992-25.2928c30.72-48.2304 104.6528 4.5056 99.328 55.3984a121.2416 121.2416 0 0 1-4.1984 36.6592zM219.648 623.3088c4.4032 36.9664 15.0528 89.7024-27.5456 110.6944-21.2992 10.24-42.496 0-63.7952-10.24a120.32 120.32 0 0 1-42.5984-126.6688c10.24-42.1888 85.0944-63.2832 116.736-6.3488a127.3856 127.3856 0 0 1 17.2032 32.5632z" fill="#FFCCC0" p-id="11088"></path><path d="M870.4 607.4368a304.128 304.128 0 0 1 0 40.96 293.4784 293.4784 0 0 1-5.0176 39.424 316.2112 316.2112 0 0 1-6.9632 40.96 311.808 311.808 0 0 1-12.1856 39.5264 246.784 246.784 0 0 1-13.9264 33.1776 276.48 276.48 0 0 1-18.7392 31.5392 246.6816 246.6816 0 0 1-67.584 73.6256 254.2592 254.2592 0 0 1-27.7504 17.408c-90.4192 40.96-196.8128 40.96-290.0992 34.4064a533.9136 533.9136 0 0 1-40.96-3.584C277.1968 934.2976 181.4528 860.16 157.3888 760.0128a364.1344 364.1344 0 0 1-12.4928-36.4544 334.1312 334.1312 0 0 1 1.3312-189.5424 356.0448 356.0448 0 0 1 26.0096-78.4384 365.9776 365.9776 0 0 1 632.9344-50.5856 359.2192 359.2192 0 0 1 33.5872 61.44A368.64 368.64 0 0 1 860.16 534.1184a472.4736 472.4736 0 0 1 10.24 73.3184z" fill="#FFE0D7" p-id="11089"></path><path d="M226.816 527.9744c39.7312 5.9392 92.8768-15.1552 140.5952-12.4928l26.0096-2.1504 160.6656-13.6192a29.3888 29.3888 0 0 0 23.1424-14.7456l27.4432-48.5376a8.0896 8.0896 0 0 1 14.2336 0l24.3712 48.3328a32.768 32.768 0 0 0 23.552 17.408l91.4432 16.0768a33.28 33.28 0 0 1 25.9072 22.1184 478.6176 478.6176 0 0 1 20.48 46.4896l14.7456 43.9296C826.1632 648.192 870.4 665.6 870.4 665.6s2.048-20.48 4.608-42.8032a246.8864 246.8864 0 0 1 10.24-36.864 368.64 368.64 0 0 0 20.992-201.0112 358.4 358.4 0 0 0-9.5232-40.0384 260.9152 260.9152 0 0 0-44.8512-103.6288C777.0112 133.12 649.4208 122.88 527.9744 137.4208c-10.24 1.536-20.48 3.2768-29.184 5.0176a409.6 409.6 0 0 0-42.1888 10.24C330.3424 122.88 192.1024 196.608 144.9984 312.9344a326.656 326.656 0 0 0-16.0768 37.2736 355.0208 355.0208 0 0 0-11.9808 40.96 296.96 296.96 0 0 0-3.6864 37.5808q-2.6624 18.7392-3.6864 37.6832a466.7392 466.7392 0 0 0 20.48 178.3808c5.0176 19.456 8.704 30.72 8.704 30.72s9.3184-17.408 21.504-40.96z" fill="#3A3635" p-id="11090"></path><path d="M461.5168 143.36c28.3648-20.48 39.0144-52.224 60.7232-73.3184-53.1456-31.6416-74.4448 31.6416-66.6624 58.368a36.352 36.352 0 0 0 5.9392 14.9504zM369.7664 655.36c3.1744 36.0448-18.1248 46.592-39.424 46.592-42.496-10.24-42.496-73.728 2.7648-90.624 20.1728 0.6144 36.5568 20.2752 36.6592 44.032zM568.6272 650.8544c-4.3008 20.48-14.9504 40.96-36.1472 40.96-42.496 0-42.496-73.728 0-85.1968 19.6608 0.3072 36.0448 20.0704 36.1472 44.2368z" fill="#3A3635" p-id="11091"></path><path d="M340.992 790.7328a26.3168 26.3168 0 0 1 7.4752-10.24c21.8112-17.92 75.9808 13.5168 110.8992 10.24 10.24-1.024 27.7504-15.0528 42.496-18.432 39.0144-15.2576 83.7632-27.648 94.4128-6.5536a38.1952 38.1952 0 0 1 5.2224 30.208 46.592 46.592 0 0 1-6.2464 13.824 210.7392 210.7392 0 0 1-133.12 61.44 153.6 153.6 0 0 1-19.8656 0c-48.2304-8.9088-92.16-22.1184-103.6288-67.4816a27.8528 27.8528 0 0 1 2.3552-13.0048z" fill="#F15921" p-id="11092"></path><path d="M723.8656 704.4096c-10.24 20.48-42.496 35.1232-74.4448 27.7504s-31.9488-44.3392 0-51.2c21.2992-7.3728 42.496 0 60.1088 8.704 8.8064 3.2768 14.336 8.704 14.336 14.7456zM299.1104 727.04c-16.6912 27.3408-48.5376 35.84-80.4864 27.3408-21.2992-8.4992-10.24-34.0992 0-42.7008 21.2992-17.1008 42.496-8.4992 66.7648-2.048a20.992 20.992 0 0 1 13.7216 17.408z" fill="#FAB414" p-id="11093"></path></svg>