<?xml version="1.0" standalone="no"?><!DOCTYPE svg PUBLIC "-//W3C//DTD SVG 1.1//EN" "http://www.w3.org/Graphics/SVG/1.1/DTD/svg11.dtd"><svg t="1595486744386" class="icon" viewBox="0 0 1024 1024" version="1.1" xmlns="http://www.w3.org/2000/svg" p-id="13276" xmlns:xlink="http://www.w3.org/1999/xlink" width="200" height="200"><defs><style type="text/css"></style></defs><path d="M953.6512 491.52c-73.1136-57.4464-166.8096-31.744-254.6688-15.6672q-13.7216 2.56-27.3408 5.5296t-27.136 6.3488c-7.168 1.7408-14.2336 3.7888-21.2992 5.7344 103.1168-61.44 251.5968-96.6656 264.8064-218.0096 2.3552-65.024-90.3168-77.7216-147.1488-51.9168C669.5936 263.3728 623.5136 329.728 583.68 399.36c0.512-2.1504 1.1264-4.1984 1.6384-6.2464 13.824-92.16 51.2-193.9456-4.5056-278.8352a122.88 122.88 0 0 0-16.5888-19.8656 114.8928 114.8928 0 0 0-20.48-16.0768c-57.0368-24.3712-99.7376 43.7248-109.568 104.7552a161.28 161.28 0 0 0-2.1504 25.3952 495.7184 495.7184 0 0 0 15.6672 114.8928c3.072 12.6976 6.3488 25.3952 10.24 38.0928 2.4576 14.6432 5.9392 29.3888 10.24 44.3392v0.6144l-12.5952-22.2208a788.48 788.48 0 0 0-70.144-109.568 301.1584 301.1584 0 0 0-29.184-31.3344 205.4144 205.4144 0 0 0-25.088-20.992c-56.7296-41.5744-149.8112-41.5744-140.4928 42.0864 9.3184 92.9792 102.4 148.6848 173.2608 197.9392l25.4976 17.7152 7.9872 5.2224a1161.9328 1161.9328 0 0 0-183.9104-40.8576 207.2576 207.2576 0 0 0-24.8832 0.9216 144.896 144.896 0 0 0-27.9552 2.8672 158.5152 158.5152 0 0 0-92.16 60.6208c-19.456 36.7616 7.7824 65.2288 26.0096 84.2752 64.1024 47.9232 138.9568 30.72 210.0224 16.1792l29.9008-5.12c15.5648-2.56 30.72-5.2224 46.4896-8.192C276.48 646.4512 157.184 714.0352 168.8576 835.584c7.5776 46.7968 54.0672 48.5376 92.16 40.96 83.968-16.384 123.904-88.7808 166.7072-156.3648 7.3728-12.1856 14.5408-24.3712 21.7088-36.6592s15.9744-26.7264 24.1664-39.936C458.4448 760.1152 392.4992 919.4496 506.88 993.28a99.6352 99.6352 0 0 0 45.3632-4.608c65.1264-27.8528 55.808-111.5136 56.9344-177.7664a625.152 625.152 0 0 0-10.24-85.6064q-4.5056-21.504-10.24-42.2912c-5.9392-21.1968-13.0048-42.0864-20.48-62.3616 4.1984 6.0416 8.2944 12.1856 12.1856 18.7392 12.3904 17.92 23.7568 36.4544 35.4304 55.1936l11.4688 18.6368c9.5232 14.7456 20.48 30.72 31.4368 47.104 5.7344 8.0896 11.6736 16.2816 17.92 24.2688s11.8784 15.5648 18.6368 23.4496c43.008 59.6992 173.3632 124.7232 182.6816 3.8912C887.296 737.28 812.8512 700.5184 768.9216 665.6c-14.9504-10.24-29.5936-19.0464-42.3936-28.0576-9.1136-5.4272-18.0224-10.9568-26.624-16.4864l-28.2624-15.2576c-19.0464-10.24-38.2976-20.48-57.856-30.72-3.3792-2.048-6.8608-4.3008-10.24-6.7584 5.2224 1.4336 10.24 3.072 15.7696 5.0176 9.216 2.048 18.5344 4.4032 27.7504 6.8608s18.6368 5.2224 27.9552 7.9872l37.6832 11.3664 30.72 6.8608c10.24 2.2528 20.48 4.4032 29.9008 6.3488 65.6384 16.384 158.5152 27.8528 206.5408-36.1472A74.9568 74.9568 0 0 0 953.6512 491.52z" fill="#F15921" p-id="13277"></path><path d="M620.2368 524.6976c-2.8672 17.8176-2.8672 36.4544-12.1856 54.9888-27.9552 37.1712-83.7632 55.808-128.9216 34.7136a141.0048 141.0048 0 0 1-21.0944-12.0832C375.3984 561.0496 393.9328 440.32 481.8944 409.6a87.6544 87.6544 0 0 1 27.3408-3.584c47.4112 0.9216 100.4544 35.5328 108.8512 88.2688a150.2208 150.2208 0 0 1 2.1504 30.4128z" fill="#FFD797" p-id="13278"></path><path d="M595.2512 522.24c-3.3792 46.2848-33.0752 66.048-72.6016 75.8784-49.4592 0-98.816-39.5264-88.9856-98.7136 19.7632-98.7136 128.512-78.9504 159.3344 0.9216a90.0096 90.0096 0 0 1 2.2528 21.9136z" fill="#FAB414" p-id="13279"></path><path d="M528.4864 391.0656c-15.7696-52.1216-26.0096-103.3216-5.5296-154.5216 20.3776 51.0976 6.0416 154.5216 5.5296 154.5216zM657.1008 426.1888c-1.1264-66.8672 70.5536-56.6272 101.2736-97.5872 0 51.2-51.2 40.96-73.3184 74.3424-6.8608 6.656-21.2992 21.6064-27.9552 23.2448zM770.2528 555.7248c-32.3584-1.8432-73.3184-1.8432-104.0384-22.3232 40.96 0 92.16-10.24 133.12 18.944a114.9952 114.9952 0 0 1-29.0816 3.3792zM700.3136 712.4992c-44.3392-25.3952-54.5792-66.3552-85.2992-86.8352 51.2 0 61.44 51.2 92.16 81.92a7.9872 7.9872 0 0 1-6.8608 4.9152zM525.0048 804.7616c-22.6304-56.32-12.3904-97.28 8.0896-138.24-10.24 40.96 10.24 92.16-7.9872 138.24zM294.8096 747.52c2.7648 1.3312-7.4752 1.3312-7.4752 1.3312 40.96-40.96 61.44-102.4 122.88-112.64-40.96 40.96-71.68 71.68-108.544 108.2368a9.0112 9.0112 0 0 1-6.8608 3.072zM368.64 549.6832c-30.72-26.5216-71.68 14.4384-102.4-16.2816 40.96-20.48 81.92-20.48 111.2064 11.3664a11.5712 11.5712 0 0 1-8.8064 4.9152zM414.208 425.2672c-44.8512-35.2256-96.0512-65.9456-106.2912-117.1456 30.72 40.96 81.92 61.44 112.64 114.9952a9.216 9.216 0 0 1-6.3488 2.1504z" fill="#3A3635" p-id="13280"></path></svg>