<?xml version="1.0" standalone="no"?><!DOCTYPE svg PUBLIC "-//W3C//DTD SVG 1.1//EN" "http://www.w3.org/Graphics/SVG/1.1/DTD/svg11.dtd"><svg t="1595486820197" class="icon" viewBox="0 0 1024 1024" version="1.1" xmlns="http://www.w3.org/2000/svg" p-id="14773" xmlns:xlink="http://www.w3.org/1999/xlink" width="200" height="200"><defs><style type="text/css"></style></defs><path d="M326.656 152.8832a668.2624 668.2624 0 0 1 112.64-9.5232 972.8 972.8 0 0 1 99.4304 11.6736c16.9984 2.9696 33.9968 6.4512 51.2 10.24C756.0192 186.368 916.2752 319.488 904.3968 496.4352a290.5088 290.5088 0 0 1-10.24 60.416C894.8736 645.12 823.6032 727.04 738.9184 771.4816a481.28 481.28 0 0 1-45.3632 17.6128c-15.5648 5.2224-31.4368 10.24-47.4112 13.9264-19.0464 2.7648-37.4784 4.3008-54.8864 5.12a666.2144 666.2144 0 0 1-117.6576-5.0176 38.7072 38.7072 0 0 0-30.0032 8.704l-78.2336 65.024a15.872 15.872 0 0 1-25.9072-10.24l-12.288-81.408a36.4544 36.4544 0 0 0-27.3408-30.72c-8.6016-2.048-19.0464-4.9152-30.72-9.0112a316.416 316.416 0 0 1-51.2-22.8352C100.5568 645.12 80.1792 481.28 122.88 346.8288a416.1536 416.1536 0 0 1 21.8112-49.0496 403.968 403.968 0 0 1 27.9552-45.7728 345.088 345.088 0 0 1 30.72-31.3344 367.4112 367.4112 0 0 1 70.8608-50.5856 325.2224 325.2224 0 0 1 52.4288-17.2032z" fill="#FAB414" p-id="14774"></path><path d="M512 401.7152a3.9936 3.9936 0 0 0 6.8608 1.3312c61.44-66.56 167.8336-49.152 189.6448 40.0384a112.64 112.64 0 0 1 0 44.4416c-28.4672 116.3264-138.6496 158.9248-235.52 174.08a40.96 40.96 0 0 1-35.9424-12.3904 238.8992 238.8992 0 0 1-77.824-62.6688 245.76 245.76 0 0 1-27.9552-42.496 234.9056 234.9056 0 0 1-18.5344-47.616 246.5792 246.5792 0 0 1-7.5776-68.7104 107.2128 107.2128 0 0 1 81.92-109.3632 120.7296 120.7296 0 0 1 101.376 38.8096 184.32 184.32 0 0 1 23.552 44.544z" fill="#F15921" p-id="14775"></path><path d="M832 247.1936c18.1248 9.728 28.2624 49.3568 40.96 35.5328 17.92-25.8048-15.36-59.4944-33.28-65.536a18.3296 18.3296 0 0 0-7.9872 30.0032zM859.136 193.2288A154.7264 154.7264 0 0 1 904.192 235.52a10.24 10.24 0 0 0 17.408-6.0416 70.9632 70.9632 0 0 0-38.5024-58.1632 17.408 17.408 0 0 0-24.6784 20.48 9.3184 9.3184 0 0 0 0.8192 1.6384z" fill="#3A3635" p-id="14776"></path></svg>