<?xml version="1.0" standalone="no"?><!DOCTYPE svg PUBLIC "-//W3C//DTD SVG 1.1//EN" "http://www.w3.org/Graphics/SVG/1.1/DTD/svg11.dtd"><svg t="1595486763486" class="icon" viewBox="0 0 1024 1024" version="1.1" xmlns="http://www.w3.org/2000/svg" p-id="13686" xmlns:xlink="http://www.w3.org/1999/xlink" width="200" height="200"><defs><style type="text/css"></style></defs><path d="M819.2 592.896c0 135.7824-126.7712 244.224-263.7824 257.8432a364.9536 364.9536 0 0 1-61.44 1.3312c-122.88-7.5776-242.4832-76.4928-277.4016-197.12a264.0896 264.0896 0 0 1-10.24-74.4448 376.5248 376.5248 0 0 1-1.536-55.7056 788.48 788.48 0 0 1 126.0544-343.9616 517.9392 517.9392 0 0 1 44.4416-60.3136C437.0432 51.2 479.1296 5.7344 525.4144 10.24c19.968 2.048 40.2432 24.1664 61.44 45.9776a515.8912 515.8912 0 0 1 56.2176 70.3488 1373.9008 1373.9008 0 0 1 138.4448 265.1136 583.0656 583.0656 0 0 1 19.968 64.4096 531.8656 531.8656 0 0 1 12.4928 69.12A611.1232 611.1232 0 0 1 819.2 592.896z" fill="#1C8E37" p-id="13687"></path><path d="M670.5152 629.9648c-34.9184-3.8912-58.88 11.9808-89.1904 25.088a299.6224 299.6224 0 0 1-57.9584 20.48q0-23.552 0.6144-47.104V586.752c-0.6144-23.6544-1.024-48.128-1.4336-72.9088h2.8672a84.1728 84.1728 0 0 0 14.0288-2.2528 111.4112 111.4112 0 0 0 14.336-4.7104 184.32 184.32 0 0 0 96.4608-84.5824c-49.5616 0-79.2576 40.1408-116.5312 57.9584a54.3744 54.3744 0 0 1-11.4688 1.9456V351.3344a78.848 78.848 0 0 0 35.4304-16.6912c5.0176-3.7888 10.24-7.8848 14.6432-11.9808s7.9872-7.4752 12.3904-11.776c10.24-13.2096 19.3536-24.3712 27.9552-35.5328-19.6608 2.4576-39.3216 4.9152-56.4224 20.48-4.5056 3.6864-8.6016 7.4752-12.8 10.752a66.2528 66.2528 0 0 1-12.4928 8.192 43.7248 43.7248 0 0 1-8.0896 2.6624q0-19.456 0.9216-38.4v-30.72A295.7312 295.7312 0 0 0 512 156.672c0-10.24-19.8656 0-17.2032 22.9376-2.4576 44.7488-2.6624 83.0464-1.6384 126.6688-7.168-4.608-14.7456-9.216-22.4256-13.9264l-13.312-8.2944c-13.5168-8.3968-14.7456-21.4016-34.4064-18.944 1.2288 10.24 20.48 48.5376 58.88 69.8368a70.5536 70.5536 0 0 1 11.776 10.24h0.6144c-1.3312 45.9776-1.8432 86.9376-1.3312 127.7952-28.2624-12.5952-59.2896-34.5088-85.0944-44.8512a86.2208 86.2208 0 0 0-40.96-7.4752c33.3824 33.8944 75.5712 81.92 120.7296 88.6784 1.9456 0.6144 3.9936 0.9216 6.0416 1.3312 0 11.264 0.7168 22.528 1.2288 34.0992v41.6768c0 30.72-0.8192 60.7232-1.1264 91.136A76.288 76.288 0 0 1 444.0064 655.36 275.2512 275.2512 0 0 0 409.6 637.44c-13.824-6.4512-39.6288-19.1488-60.3136-10.24 21.0944 16.4864 62.5664 46.8992 85.1968 62.2592a242.176 242.176 0 0 0 23.552 14.1312 112.64 112.64 0 0 0 34.6112 11.5712v37.5808c0 12.4928 0 27.7504-0.7168 41.6768v64q0 15.4624-0.8192 30.72c0 10.24 0 20.48-0.7168 30.1056s-1.4336 20.48-1.9456 30.1056c3.8912 20.48-6.0416 40.1408 3.8912 60.2112a18.944 18.944 0 0 0 29.696-10.24v-99.0208-46.7968-37.0688c0-24.8832 0-50.176 0.6144-76.288v-23.7568c56.2176-3.9936 112.2304-43.2128 147.8656-86.4256z" fill="#3A3635" p-id="13688"></path></svg>