<?xml version="1.0" standalone="no"?><!DOCTYPE svg PUBLIC "-//W3C//DTD SVG 1.1//EN" "http://www.w3.org/Graphics/SVG/1.1/DTD/svg11.dtd"><svg t="1595486778858" class="icon" viewBox="0 0 1024 1024" version="1.1" xmlns="http://www.w3.org/2000/svg" p-id="13956" xmlns:xlink="http://www.w3.org/1999/xlink" width="200" height="200"><defs><style type="text/css"></style></defs><path d="M921.6 626.3808c-3.072-5.12-6.0416-10.24-9.1136-15.1552C844.0832 490.7008 742.2976 378.88 657.5104 267.6736q-14.4384-16.6912-29.3888-32.9728t-30.72-32.1536L563.2 166.8096l-33.9968-35.84a19.7632 19.7632 0 0 0-30.0032-1.4336c-112.64 108.1344-215.04 219.648-292.5568 346.9312q-12.6976 19.456-25.1904 39.1168c-24.6784 38.7072-49.0496 78.0288-74.8544 117.5552a161.4848 161.4848 0 0 1 18.6368 30.72A137.216 137.216 0 0 1 153.6 689.664c3.4816 1.536 6.9632 3.072 10.24 4.9152a155.8528 155.8528 0 0 1 41.984 38.0928 102.4 102.4 0 0 1 21.4016 18.7392l2.9696 3.3792a153.6 153.6 0 0 1 27.8528 18.1248c2.6624 1.6384 5.5296 3.1744 8.2944 4.8128a158.5152 158.5152 0 0 1 24.2688 9.0112l2.048 0.6144h5.7344c15.5648 1.4336 30.72 3.9936 46.592 5.632l100.7616 10.24c62.0544 6.656 131.072 14.7456 192 6.0416a490.3936 490.3936 0 0 0 85.6064-24.6784c16.9984-5.9392 33.8944-12.3904 51.2-18.432 2.6624-0.9216 26.2144-10.24 27.4432-10.24a367.0016 367.0016 0 0 0 64.3072-45.1584l7.68-6.144a49.2544 49.2544 0 0 1 4.7104-5.4272 35.9424 35.9424 0 0 1 3.584-12.6976A167.5264 167.5264 0 0 1 921.6 626.3808z" fill="#F15921" p-id="13957"></path><path d="M917.504 619.4176c-2.048 2.9696-3.9936 5.9392-6.0416 8.8064a534.4256 534.4256 0 0 1-89.8048 79.5648q-12.6976 8.4992-24.9856 16.1792a320.2048 320.2048 0 0 1-28.672 16.4864c-10.24 4.9152-19.8656 9.3184-30.0032 13.2096-127.6928 51.2-270.0288 51.2-402.8416 15.1552q-17.7152-5.4272-35.4304-12.0832A478.1056 478.1056 0 0 1 140.3904 655.36c-10.24-10.24-19.5584-20.48-28.672-30.72l-6.0416 9.5232q-8.8064 16.0768-17.1008 32.4608a31.232 31.232 0 0 0 0 38.4l5.632 6.8608A487.936 487.936 0 0 0 168.5504 788.48q13.6192 11.264 28.0576 21.2992C304.8448 896.2048 467.6608 916.48 613.2736 890.88c15.0528-1.8432 30.0032-4.1984 44.9536-7.2704A503.5008 503.5008 0 0 0 747.52 856.6784 371.712 371.712 0 0 0 786.7392 839.68a309.1456 309.1456 0 0 0 101.5808-81.92 256.6144 256.6144 0 0 0 38.2976-51.9168A81.1008 81.1008 0 0 0 942.08 670.6176c1.4336-13.9264-10.24-25.2928-12.288-30.72-4.1984-7.0656-8.192-13.824-12.288-20.48z" fill="#1C8E37" p-id="13958"></path><path d="M503.6032 280.1664c4.7104 7.7824 4.7104 28.0576 14.9504 28.0576 20.48 0 30.72-10.24 20.48-30.72-10.24-10.24-20.48-20.48-35.2256 2.3552zM407.7568 345.9072C406.6304 358.4 406.6304 378.88 416.768 378.88c30.72 0 20.48-30.72 10.24-40.96 0 0-10.24 10.24-19.2512 7.2704zM578.048 352.9728c1.4336 5.4272 11.6736 36.1472 21.8112 36.1472s20.48-30.72 10.24-40.96-20.48-20.48-31.9488 4.1984zM481.9968 443.4944c-4.1984 16.7936 5.9392 26.9312 26.3168 26.9312l10.24-20.48c-10.24-10.24-20.48-40.96-36.4544-6.656zM323.6864 433.152c-18.8416 16.9984-8.6016 37.2736 11.6736 37.2736 10.24 0 20.48-20.48 20.48-30.72 0-20.48-10.24-20.48-32.0512-6.8608zM409.6 517.2224c-2.56 24.1664 7.5776 24.1664 17.8176 24.1664 10.24-10.24 20.48-40.96-10.24-40.96 0 0-10.24 10.24-7.5776 16.384zM564.1216 515.4816c-4.9152 15.7696 15.36 25.9072 25.6 25.9072 20.48-10.24 0-30.72-10.24-40.96 0 0-10.24 10.24-15.36 14.6432zM708.1984 483.84c3.584 6.8608-26.9312 27.136 34.0992 37.2736v-40.96c-10.24-10.24-20.48-20.48-34.0992 3.2768z" fill="#3A3635" p-id="13959"></path></svg>