<?xml version="1.0" standalone="no"?><!DOCTYPE svg PUBLIC "-//W3C//DTD SVG 1.1//EN" "http://www.w3.org/Graphics/SVG/1.1/DTD/svg11.dtd"><svg t="1595486730887" class="icon" viewBox="0 0 1024 1024" version="1.1" xmlns="http://www.w3.org/2000/svg" p-id="13007" xmlns:xlink="http://www.w3.org/1999/xlink" width="200" height="200"><defs><style type="text/css"></style></defs><path d="M579.886977 790.337734c-5.529256 5.734043-10.751331 11.365693-15.871012 16.997343-11.468087 13.82314-29.284578 23.550535-43.722081 35.018621-2.559841-19.761971-4.914894-39.216761-5.426862-57.852401 0-7.269948-1.12633-26.622344-1.12633-33.892292v-10.239363c26.622344-21.605056 37.373675-40.957452 58.978731-69.730063 5.63165-7.065161 11.160906-14.232715 16.382981-21.605056a186.356409 186.356409 0 0 0 34.199473-70.139637c-20.990694 3.37899-28.670217 14.232715-39.626335 27.441493-4.402926 5.324469-30.718089 48.432188-68.706127 99.219428 1.331117-27.543887 2.25266-55.190167 2.662235-82.63166v-26.21277-38.397611c4.607713-8.293884 9.420214-16.587768 14.232714-24.881653 26.929525-43.517293 58.36437-84.167565 79.457458-134.954805-31.946813 0-63.074477 61.436179-86.113044 86.522618l-7.781916 12.594416c0-58.466763 0-117.650282 0.511969-178.369705v-22.83378l2.150266-0.716755L593.914905 177.819032c-45.053198 4.607713-58.978732 37.271282-75.464106 69.525276v-8.396278c0-48.022613 10.239363-108.946824-10.853725-159.734064 0-10.239363-20.990694 0-16.997343 15.256651-3.481383 48.432188-3.890958 100.448152-3.890958 149.597095-21.093088-18.738034-24.472078-62.664902-77.102404-53.756657a194.547899 194.547899 0 0 1 45.872347 58.671551 90.106395 90.106395 0 0 1 12.082448 18.635641 115.90959 115.90959 0 0 0 19.557184 26.51995v187.585133c-32.356387-34.506654-45.769953-92.154268-102.393631-100.755333 19.147609 54.268624 73.621021 83.860384 94.304534 139.972093 2.867022 5.63165 5.63165 11.365693 8.293884 17.20213v54.678199c0 26.929525 0 53.961444-0.819149 81.914905-42.390963-51.196816-90.51597-94.202141-135.466774-97.376343 41.981389 51.196816 73.518627 68.091765 111.301877 116.72874 4.198139 5.63165 17.099736 20.478726 23.140961 28.465429 0 9.420214 0 18.942822-0.81915 28.567823s0.716755 19.250003 1.023937 28.77261c0 17.611705 0.921543 33.892292 1.433511 49.558518-9.727395-8.601065-20.478726-16.0758-29.079792-24.369684A179.188854 179.188854 0 0 0 440.324458 790.542521c-27.851068-24.676865-100.652939-56.11171-119.083793-38.295218 29.386972 18.942822 86.215437 45.769953 120.210123 73.825808 5.529256 5.836437 10.853725 11.775268 16.382981 17.406917a150.723425 150.723425 0 0 0 29.489366 24.062504c0.614362 33.994686 0.511968 67.68219-1.843085 108.639642a119.28858 119.28858 0 0 0 0 35.121016c1.535904 7.167554 10.239363 11.775268 20.478726 12.594416a11.57048 11.57048 0 0 0 11.980055-7.474735c15.768619-45.97474 12.69681-93.178204 7.06516-138.845763 18.738034-25.188833 50.684847-35.223409 66.146286-62.152935 4.914894-4.50532 10.239363-8.908246 15.563832-13.311172 26.724738-22.117024 56.623678-44.234049 71.675542-77.511978-37.78325 9.522608-70.958786 37.373675-98.502674 65.736711z" fill="#3A3635" p-id="13008"></path><path d="M554.902931 62.933378c-10.239363 52.630326-46.486709 52.630326-70.958786 40.957453A61.436179 61.436179 0 0 1 471.759303 9.279116c36.65692-23.652929 73.211446 0 83.143628 47.305857a35.632984 35.632984 0 0 1 0 6.348405zM645.11172 171.368234c-3.276596 45.155591-67.68219 54.063837-86.113043 18.533247-9.215427-35.632984 9.215427-53.347082 36.759313-62.255328a51.196816 51.196816 0 0 1 46.896283 28.772611 38.602399 38.602399 0 0 1 2.457447 14.94947zM668.047894 388.442732c7.986703 36.144952-52.118358 73.621021-87.546555 45.360378a104.543897 104.543897 0 0 1-14.744683-15.871013 44.234049 44.234049 0 0 1-5.222075-33.994685 53.347082 53.347082 0 0 1 7.065161-17.509311c24.472078-43.4149 78.94549-44.029261 96.659587 4.812501a40.957452 40.957452 0 0 1 3.788565 17.20213zM401.312485 581.249939c-9.01064 36.349739-71.675542 56.623678-93.075811 16.0758-10.239363-30.718089 0-61.436179 31.537238-71.163573s52.527933 10.239363 57.954796 37.373675a50.48006 50.48006 0 0 1 3.583777 17.714098zM430.801851 379.94406c3.583777 54.780593-59.4907 75.156925-93.997354 36.861707a57.954795 57.954795 0 0 1-13.925534-17.406917 52.220752 52.220752 0 0 1-5.426862-19.864364 57.750008 57.750008 0 0 1 1.945479-19.864365 77.716766 77.716766 0 0 1 6.75798-16.894949 65.019956 65.019956 0 0 1 10.239363-13.82314c29.284578-30.103728 71.675542-14.335108 90.311182 28.055855a73.825808 73.825808 0 0 1 4.095746 22.936173zM676.341778 591.898877c-10.853725 25.700801-42.390963 35.837771-76.180862 31.230057a80.993362 80.993362 0 0 1-16.382981-6.553192 58.057189 58.057189 0 0 1-12.799203-9.113033c-26.315163-31.742026-7.372341-71.675542 25.39362-86.727406a68.091765 68.091765 0 0 1 21.093088-5.938831 48.636975 48.636975 0 0 1 60.002668 60.309849 132.087784 132.087784 0 0 1-1.12633 16.792556zM754.980087 696.34038c5.017288 22.83378 5.017288 43.107719-15.973407 53.244689-31.537238 30.718089-73.518627 10.239363-94.509321-20.478727-10.239363-20.478726 0-61.436179 36.247345-73.723414a73.723414 73.723414 0 0 1 18.533247-2.150266 65.634318 65.634318 0 0 1 49.456124 20.478726 80.583788 80.583788 0 0 1 6.246012 22.628992zM377.557162 739.550493a130.244699 130.244699 0 0 1-4.402926 19.352396 83.246022 83.246022 0 0 1-6.962767 16.485375A37.066494 37.066494 0 0 1 327.691464 796.481352a63.074477 63.074477 0 0 1-19.250003-6.143618c-20.990694-10.239363-41.981389-20.478726-41.981388-51.196816 0-61.436179 94.509322-71.163574 108.742036-21.502662a58.261976 58.261976 0 0 1 2.355053 21.912237zM448.515949 179.559724c4.300533 25.803195-29.386972 50.275273-54.678199 50.275273-36.247345-6.143618-45.257985-39.728729-42.083783-65.122349 8.396278-40.957452 75.771287-40.957452 91.027938 0a159.222096 159.222096 0 0 1 5.734044 14.847076z" fill="#136CA8" p-id="13009"></path></svg>