<?xml version="1.0" standalone="no"?><!DOCTYPE svg PUBLIC "-//W3C//DTD SVG 1.1//EN" "http://www.w3.org/Graphics/SVG/1.1/DTD/svg11.dtd"><svg t="1595486813557" class="icon" viewBox="0 0 1024 1024" version="1.1" xmlns="http://www.w3.org/2000/svg" p-id="14637" xmlns:xlink="http://www.w3.org/1999/xlink" width="200" height="200"><defs><style type="text/css"></style></defs><path d="M70.7584 319.1808L44.2368 348.16a12.1856 12.1856 0 0 0-2.56 12.3904l4.096 11.4688c8.192 20.48 14.848 40.96 20.992 61.44q3.072 10.24 6.0416 20.48a1089.6384 1089.6384 0 0 0 34.5088 105.1648l7.7824 20.48c24.6784 51.9168 43.7248 109.056 65.7408 170.9056 2.7648 7.5776 5.3248 15.2576 7.8848 23.1424 3.7888 11.8784 29.5936 84.48 42.0864 119.3984a13.0048 13.0048 0 0 0 21.0944 5.2224q8.9088-8.6016 18.0224-16.5888t18.3296-15.4624q9.216-7.4752 18.6368-14.5408t18.944-13.7216A1172.8896 1172.8896 0 0 1 441.856 768l24.2688-10.24 24.2688-10.24q11.776-3.072 23.9616-5.12t24.9856-2.8672c10.24-1.2288 19.3536-1.8432 27.136-2.4576 40.448-3.072 40.96 12.3904 63.5904 8.2944A33.9968 33.9968 0 0 0 657.3056 727.04a159.9488 159.9488 0 0 1 14.6432-18.7392 164.6592 164.6592 0 0 1 16.7936-15.9744c61.44-41.8816 127.7952-51.2 190.5664-53.76l28.2624-2.7648c27.7504-2.56 52.0192-4.3008 66.7648-5.3248a9.4208 9.4208 0 0 0 7.5776-14.1312l-19.968-35.0208z" fill="#136CA8" p-id="14638"></path><path d="M390.0416 195.4816s3.2768-3.2768 9.4208-8.3968a208.896 208.896 0 0 1 42.0864-30.72C512 116.9408 587.776 116.9408 668.5696 133.12c6.4512 0.8192 17.7152 2.56 25.9072 3.7888a22.3232 22.3232 0 0 1 15.4624 10.24c4.608 7.2704 10.752 16.896 12.9024 20.48l10.24 15.6672c35.4304 39.0144 54.4768 96.1536 84.2752 143.36l10.9568 17.8176c14.7456 23.7568 30.0032 47.616 45.3632 71.68 4.608 6.3488 9.1136 12.6976 13.5168 19.1488a312.6272 312.6272 0 0 1 29.0816 51.2l10.24 22.016A493.7728 493.7728 0 0 0 971.264 583.68a6.4512 6.4512 0 0 1-4.1984 10.24c-15.9744 2.048-43.8272 6.0416-56.6272 7.5776-8.8064 1.024-17.6128 1.9456-26.2144 2.7648-77.2096 7.4752-162.9184 16.9984-230.2976 70.7584a168.3456 168.3456 0 0 0-14.0288 13.2096 114.5856 114.5856 0 0 0-16.2816 20.992z" fill="#FAB414" p-id="14639"></path><path d="M390.0416 195.4816s-7.68-2.3552-20.48-5.12a265.4208 265.4208 0 0 0-222.5152 53.3504c-6.3488 5.12-12.5952 10.24-18.7392 15.872A685.056 685.056 0 0 1 71.68 305.152a16.7936 16.7936 0 0 0-6.0416 19.456l12.288 34.304 8.6016 23.8592c11.3664 28.7744 20.48 57.4464 28.2624 86.016l6.144 21.2992a1054.72 1054.72 0 0 0 35.328 111.9232c2.7648 7.4752 5.632 14.848 8.4992 22.2208 13.1072 63.7952 51.2 120.9344 77.1072 191.5904l6.656 18.3296a12.1856 12.1856 0 0 0 18.8416 5.632l1.4336-1.024q9.216-8.2944 18.6368-16.1792c6.2464-5.2224 12.5952-10.24 19.0464-15.0528L327.68 794.5216l21.1968-13.1072a416.8704 416.8704 0 0 1 252.5184-75.4688 73.216 73.216 0 0 1 22.016 3.584l-14.2336-30.72-10.24-22.2208c-2.048-7.2704-4.5056-14.4384-7.0656-21.6064a1380.6592 1380.6592 0 0 0-76.4928-183.296q-5.0176-10.24-10.24-19.968c-32.0512-66.7648-60.6208-133.12-99.0208-199.4752-3.1744-6.5536-6.2464-13.1072-9.0112-19.7632z" fill="#F15921" p-id="14640"></path><path d="M505.344 299.6224c34.816-87.552 158.72-87.552 225.28-58.9824-76.288 9.5232-161.9968-9.5232-217.1904 54.6816a10.24 10.24 0 0 1-8.0896 4.3008zM542.72 364.4416c26.112-95.232 159.5392-95.232 226.2016-57.1392-76.288 9.5232-171.52-19.0464-218.5216 53.3504a10.24 10.24 0 0 1-7.68 3.7888zM179.3024 438.4768c27.2384-92.16 170.1888-168.1408 246.3744-101.4784-95.3344-19.0464-181.0432 19.0464-239.0016 97.792a9.4208 9.4208 0 0 1-7.3728 3.6864z" fill="#3A3635" p-id="14641"></path><path d="M201.4208 512c24.2688-90.5216 176.7424-166.7072 252.928-100.0448-95.3344-28.5696-181.0432 28.5696-245.76 96.4608a9.216 9.216 0 0 1-7.168 3.584z" fill="#3A3635" p-id="14642"></path></svg>