<?xml version="1.0" standalone="no"?><!DOCTYPE svg PUBLIC "-//W3C//DTD SVG 1.1//EN" "http://www.w3.org/Graphics/SVG/1.1/DTD/svg11.dtd"><svg t="1595486826669" class="icon" viewBox="0 0 1024 1024" version="1.1" xmlns="http://www.w3.org/2000/svg" p-id="14909" xmlns:xlink="http://www.w3.org/1999/xlink" width="200" height="200"><defs><style type="text/css"></style></defs><path d="M527.1552 331.6736A230.8096 230.8096 0 0 1 551.5264 317.44c7.7824-4.096 17.1008-8.704 27.8528-13.1072a226.0992 226.0992 0 0 1 50.4832-16.384 190.2592 190.2592 0 0 1 120.32 10.24A229.4784 229.4784 0 0 1 786.5344 317.44a210.6368 210.6368 0 0 1 89.4976 107.9296A286.72 286.72 0 0 1 889.6512 471.04c35.5328 144.384-10.9568 343.3472-150.2208 411.648a236.9536 236.9536 0 0 1-42.0864 12.6976c-71.68 14.848-149.9136-2.1504-188.416-28.672a226.4064 226.4064 0 0 1-104.5504 33.9968 223.232 223.232 0 0 1-50.5856-2.048c-131.584-18.8416-215.04-143.36-227.84-275.7632a370.4832 370.4832 0 0 1-1.4336-49.4592c-20.992-196.5056 160.3584-395.0592 360.1408-269.2096a288.1536 288.1536 0 0 1 42.496 27.4432z" fill="#F15921" p-id="14910"></path><path d="M534.528 380.0064c7.3728-197.632 99.1232-215.04 78.4384-256-49.8688-14.4384-102.4 133.12-102.4 266.24 15.36 0 15.0528-11.0592 23.8592-10.24z" fill="#3A3635" p-id="14911"></path><path d="M448 354.5088c16.2816 40.96 116.5312 69.632 152.3712 8.4992-43.7248 28.4672-95.744-2.56-152.3712-8.4992z" fill="#3A3635" p-id="14912"></path><path d="M655.36 754.688c20.48-1.536 23.4496-37.1712 3.1744-35.0208S634.88 756.4288 655.36 754.688zM731.8528 719.1552c20.48 0.9216 23.8592-32.768 3.4816-32.9728s-23.7568 33.1776-3.4816 32.9728zM720.0768 810.1888c20.48 1.2288 23.4496-38.0928 3.2768-38.7072s-23.3472 38.0928-3.2768 38.7072zM831.1808 677.9904c19.6608 5.0176 22.016-24.4736 2.2528-28.7744s-22.1184 24.3712-2.2528 28.7744zM787.6608 631.808c20.48 2.8672 21.7088-23.3472 1.6384-25.6s-21.8112 23.552-1.6384 25.6z" fill="#D13E11" p-id="14913"></path></svg>