<?xml version="1.0" standalone="no"?><!DOCTYPE svg PUBLIC "-//W3C//DTD SVG 1.1//EN" "http://www.w3.org/Graphics/SVG/1.1/DTD/svg11.dtd"><svg t="1595486751133" class="icon" viewBox="0 0 1024 1024" version="1.1" xmlns="http://www.w3.org/2000/svg" p-id="13413" xmlns:xlink="http://www.w3.org/1999/xlink" width="200" height="200"><defs><style type="text/css"></style></defs><path d="M464.384 526.5408c24.2688 76.9024-13.2096 141.2096-49.8688 204.8-7.3728 12.8-14.6432 25.6-21.4016 38.5024-27.0336 52.3264-48.128 132.4032 9.4208 181.8624a180.3264 180.3264 0 0 0 28.9792 23.7568c103.3216 66.8672 282.7264 46.7968 338.5344-75.3664a201.728 201.728 0 0 0 13.1072-37.5808 260.9152 260.9152 0 0 0-0.8192-120.32 410.4192 410.4192 0 0 0-9.216-40.96 558.7968 558.7968 0 0 0-100.5568-192.3072 153.6 153.6 0 0 0-36.352-23.1424 125.0304 125.0304 0 0 0-30.72-9.216 119.0912 119.0912 0 0 0-32.768-0.8192 98.2016 98.2016 0 0 0-36.4544 13.312 238.2848 238.2848 0 0 1-32.3584 16.7936 359.5264 359.5264 0 0 0-39.5264 20.6848z" fill="#FAB414" p-id="13414"></path><path d="M218.4192 533.9136c10.24-131.4816 94.9248-231.5264 157.2864-337.408a493.8752 493.8752 0 0 1 39.2192-47.4112 381.1328 381.1328 0 0 1 46.6944-42.1888 110.2848 110.2848 0 0 1 35.4304-13.0048 124.5184 124.5184 0 0 1 42.3936 0c45.056 5.0176 78.7456 27.7504 109.9776 55.3984 10.24 9.216 20.48 19.0464 30.72 28.8768s23.1424 22.528 35.5328 33.792c82.944 70.144 177.9712 150.2208 198.7584 266.24a94.3104 94.3104 0 0 1-4.8128 37.5808 129.536 129.536 0 0 1-47.7184 60.928 200.2944 200.2944 0 0 1-29.3888 18.2272c-105.7792 44.6464-225.28 4.4032-330.1376 32.9728-15.6672 1.8432-31.3344 4.1984-46.7968 7.168A466.432 466.432 0 0 0 409.6 646.656l-34.816 2.3552c-51.2-6.4512-114.0736-16.4864-140.5952-67.1744a213.2992 213.2992 0 0 1-15.7696-47.9232z" fill="#F15921" p-id="13415"></path><path d="M669.184 825.1392A224.1536 224.1536 0 0 1 647.4752 870.4c-6.8608 13.1072 8.192 19.7632 16.6912 7.5776a154.624 154.624 0 0 0 23.8592-51.2c3.7888-14.1312-15.0528-15.872-18.8416-1.7408zM720.6912 831.3856a309.4528 309.4528 0 0 1-41.6768 83.0464c-8.6016 12.1856 11.6736 18.6368 20.48 6.7584 22.1184-28.5696 27.2384-51.2 38.912-84.3776 4.9152-13.9264-13.2096-19.2512-18.1248-5.4272z" fill="#3A3635" p-id="13416"></path><path d="M722.3296 285.184c-6.3488 40.96-71.68 61.44-93.184 21.1968s32.5632-81.1008 79.4624-48.0256a36.1472 36.1472 0 0 1 13.7216 26.8288zM606.5152 337.92c0.9216 59.4944-85.8112 79.6672-118.3744 29.2864C466.432 316.416 542.72 276.48 589.6192 304.2304A43.1104 43.1104 0 0 1 606.5152 337.92zM456.192 306.176c1.024 32.6656-45.8752 76.288-83.456 50.0736-18.7392-17.408-37.5808-52.3264 0-69.7344a103.1168 103.1168 0 0 1 70.656-0.8192 26.624 26.624 0 0 1 12.8 20.48zM556.1344 249.4464c-2.6624 30.0032-51.2 48.0256-70.4512 11.9808-9.728-27.0336 19.3536-35.9424 39.2192-38.0928a27.9552 27.9552 0 0 1 31.232 26.112zM626.3808 227.6352c-8.0896 18.3296-29.7984 28.3648-51.2 8.2944-10.8544-20.48 10.8544-30.72 28.672-27.9552a21.504 21.504 0 0 1 22.528 19.6608zM564.5312 191.0784c1.3312 7.8848-33.4848 19.968-35.0208 3.584s7.7824-20.48 15.7696-20.992a20.48 20.48 0 0 1 19.2512 17.408zM468.8896 218.4192C466.432 235.52 455.5776 245.76 433.8688 235.52s-10.8544-30.72 15.7696-34.0992a18.1248 18.1248 0 0 1 19.2512 16.9984z" fill="#D13E11" p-id="13417"></path></svg>