<?xml version="1.0" standalone="no"?><!DOCTYPE svg PUBLIC "-//W3C//DTD SVG 1.1//EN" "http://www.w3.org/Graphics/SVG/1.1/DTD/svg11.dtd"><svg t="1595486737585" class="icon" viewBox="0 0 1024 1024" version="1.1" xmlns="http://www.w3.org/2000/svg" p-id="13140" xmlns:xlink="http://www.w3.org/1999/xlink" width="200" height="200"><defs><style type="text/css"></style></defs><path d="M433.7664 450.56c-26.5216 55.808-52.224 112.64-79.4624 168.6528q-13.6192 28.16-26.624 56.2176c-36.864 94.8224-104.448 183.296-122.88 292.9664-3.3792 20.48 30.72 31.232 40.96 20.48C290.9184 942.08 340.48 788.48 385.024 697.7536c9.5232-19.456 18.5344-39.1168 27.3408-58.7776 26.5216-58.9824 55.9104-118.9888 71.68-181.5552 10.24-20.48-30.72-31.232-50.176-7.2704z" fill="#136CA8" p-id="13141"></path><path d="M775.2704 427.3152C727.552 538.624 607.8464 587.264 500.9408 575.3856a265.5232 265.5232 0 0 1-61.44-14.4384c-85.9136-21.7088-150.3232-97.4848-171.7248-184.32C245.76 246.6816 299.4176 105.8816 417.4848 51.2 524.8 8.3968 664.3712 30.0032 742.8096 136.6016a290.2016 290.2016 0 0 1 39.2192 71.68A261.2224 261.2224 0 0 1 798.72 285.9008a315.2896 315.2896 0 0 1 0.6144 71.68 270.2336 270.2336 0 0 1-24.064 69.7344z" fill="#F15921" p-id="13142"></path><path d="M760.5248 450.56l-58.88-26.2144C557.056 355.0208 428.2368 300.8512 288.768 235.52c-42.9056-21.7088-32.1536-86.6304 0-75.8784C460.8 203.3664 610.7136 279.2448 758.4768 355.4304a430.7968 430.7968 0 0 1 56.1152 43.008c10.24 10.8544 0 21.7088-5.7344 34.4064A36.7616 36.7616 0 0 1 760.5248 450.56z" fill="#FAB414" p-id="13143"></path></svg>