<?xml version="1.0" standalone="no"?><!DOCTYPE svg PUBLIC "-//W3C//DTD SVG 1.1//EN" "http://www.w3.org/Graphics/SVG/1.1/DTD/svg11.dtd"><svg t="1595486695239" class="icon" viewBox="0 0 1024 1024" version="1.1" xmlns="http://www.w3.org/2000/svg" p-id="12454" xmlns:xlink="http://www.w3.org/1999/xlink" width="200" height="200"><defs><style type="text/css"></style></defs><path d="M624.013928 1008.739689c-5.221856 5.529024-182.048231 30.716799-209.898128 1.126283-23.754325-24.982997-19.96592-60.307316-18.634859-101.570216v-25.085387-78.02067c10.238933 0 10.238933 10.238933 19.761141 8.805483a46.689535 46.689535 0 0 0 16.689461 0c7.064864-0.819115 14.334506-2.047787 21.706538-2.559734a69.727134 69.727134 0 0 1 22.423264 1.433451l24.47105-2.150176c8.191146-0.614336 16.382293-1.228672 24.47105-1.53584s15.972736 0 23.754325 0a107.713576 107.713576 0 0 1 26.826005 0 57.030857 57.030857 0 0 1 19.556362 5.836192 70.853417 70.853417 0 0 1 23.037599 24.368661 80.273236 80.273236 0 0 1 9.112651 29.488127 168.123282 168.123282 0 0 1 1.740618 42.389183c0.102389 38.395999 2.662123 89.488275-5.017077 97.474643z" fill="#3A3635" p-id="12455"></path><path d="M512.614336 235.495461l-19.146805 33.993258c-20.477866 40.955732-42.79874 81.911465-66.245897 120.9218q-17.610965 30.000074-35.836266 59.181034C313.05753 585.769363 225.309873 706.486384 164.695389 854.336578a10.238933 10.238933 0 0 0 9.419819 14.744064c126.246045 1.433451 252.49209 20.477866 378.02141 9.624597H681.147175q30.716799-1.53584 60.716873-3.788405t59.897759-5.324246h46.484756a11.877162 11.877162 0 0 0 10.238933-16.689461 3500.179281 3500.179281 0 0 0-282.696943-509.694089l-25.802111-41.774847C526.846453 261.195183 512.614336 235.495461 512.614336 235.495461z" fill="#1C8E37" p-id="12456"></path><path d="M239.337211 702.697979c14.846453 1.53584 32.047861 2.457344 49.965994 2.764512h34.300426a206.928838 206.928838 0 0 0 70.44386 3.378848l10.750879-0.921504C450.566401 706.486384 491.522134 706.486384 529.610965 708.124613l13.310613 1.023894a425.632449 425.632449 0 0 0 95.734024 0l14.027339-1.023894c14.027338-1.126283 28.566623-2.047787 44.129802-2.252565H737.256528a419.796257 419.796257 0 0 0 31.740693-2.559733h18.32769q-17.815744-34.812373-36.450602-69.112799h-470.990922q-12.901056 21.39937-25.597333 43.003519l-5.017077 8.703094-5.017078 8.703093z" fill="#147228" p-id="12457"></path><path d="M515.890795 94.91491c-44.641748 71.672532-89.693054 144.368957-133.106131 217.27016q-16.382293 27.337951-32.457418 54.880682C307.221338 451.53695 250.702427 530.376735 210.46342 626.520317a10.238933 10.238933 0 0 0 9.522208 13.822559c76.791998-5.017077 161.160807 21.604149 234.369179 14.232117 20.477866 1.331061 41.467679 1.843008 62.457492 1.843008 95.324467 5.733803 189.82982-11.979552 284.437561-14.334506a13.413002 13.413002 0 0 0 11.877163-18.737248c-51.194666-116.826227-126.860381-225.256528-187.474866-335.222669-10.238933-16.89424-21.092202-33.68609-31.740692-51.194666-8.498314-14.232117-16.689461-28.566623-24.47105-43.105908s-15.153621-29.07857-21.911317-43.925023c-19.453973-33.68609-31.638303-54.983071-31.638303-54.983071z" fill="#1C8E37" p-id="12458"></path><path d="M691.693276 586.486088a51.911391 51.911391 0 0 0 6.860085 20.477866c3.07168 5.938581 10.238933 11.774773 16.177514 8.498315s3.481237-12.18433 0-18.225301a92.150398 92.150398 0 0 1-8.191146-16.996629c-2.764512-9.624597-5.119467-11.160437-10.955658-9.522208s-4.505131 9.11265-3.481238 15.767957zM647.153917 597.544136c3.07168 6.962475 7.474421 13.208224 10.238933 20.477866s6.552917 8.191146 12.28672 4.812299 5.631413-7.883978 2.764512-14.539285-6.757696-14.027338-10.238933-20.477867-10.238933-12.081941-15.665568-8.703093-2.969291 12.491498 0 19.146805z" fill="#3A3635" p-id="12459"></path><path d="M696.812743 409.557324c-11.365216-18.839637-22.628042-37.576884-33.78848-56.314132H583.672532c-10.238933 1.228672-20.477866 2.252565-29.283349 2.866901l-13.72017 0.716726a161.570364 161.570364 0 0 1-33.68609 0.921504h-10.546101a453.994294 453.994294 0 0 1-61.433599-4.505131H358.416003l-8.191146 13.82256c-7.167253 14.334506-14.948842 28.464234-22.832821 42.491572h26.518837a233.959621 233.959621 0 0 0 69.829524 0.511947c4.60752 0 9.11265-0.716725 13.72017-0.819115a447.236598 447.236598 0 0 1 66.450676 7.064864l13.105834 1.945397A666.452156 666.452156 0 0 0 669.474791 409.557324h27.337952z" fill="#147228" p-id="12460"></path><path d="M504.730357 4.402741C433.97933 110.068531 368.654937 224.130246 303.023375 338.601518a12.389109 12.389109 0 0 0 7.883979 18.225301c104.949064 24.061493 201.809371-3.583627 311.980292 6.655306H711.249638a11.365216 11.365216 0 0 0 10.238933-16.587071C672.546471 247.782181 614.389331 141.092498 547.836266 48.737322c-11.262826-18.43008-20.477866-33.68609-26.416448-43.822634a10.238933 10.238933 0 0 0-16.689461-0.511947z" fill="#1C8E37" p-id="12461"></path></svg>