<?xml version="1.0" standalone="no"?><!DOCTYPE svg PUBLIC "-//W3C//DTD SVG 1.1//EN" "http://www.w3.org/Graphics/SVG/1.1/DTD/svg11.dtd"><svg t="1595486786599" class="icon" viewBox="0 0 1024 1024" version="1.1" xmlns="http://www.w3.org/2000/svg" p-id="14092" xmlns:xlink="http://www.w3.org/1999/xlink" width="200" height="200"><defs><style type="text/css"></style></defs><path d="M682.2912 934.912H665.6l-84.992 4.3008-27.8528 1.3312H528.384c-76.1856 1.4336-146.2272 1.4336-228.0448 0h-25.1904l-24.6784-0.6144-27.9552-2.4576-38.5024-2.2528h-8.9088a31.9488 31.9488 0 0 1-31.744-31.744v-6.144c0-8.192-0.512-16.384-0.7168-24.6784s0-17.5104 0-26.0096v-25.2928c-0.6144-79.4624-0.6144-159.6416 0-238.3872v-16.896-16.7936c0-29.7984 0.7168-59.6992 1.2288-90.4192v-37.7856h538.4192z" fill="#FAB414" p-id="14093"></path><path d="M860.16 933.5808c-15.4624-0.8192-55.808 1.3312-62.0544 1.3312h-120.832v-17.7152q1.536-25.4976 2.3552-50.4832 0-12.4928 0.7168-24.8832c1.9456-79.7696-8.0896-159.9488 0-242.176q0-11.3664 0.6144-22.528c0.6144-37.4784-0.512-74.6496-2.8672-113.7664v-42.1888h194.56a208.1792 208.1792 0 0 1 12.1856 48.128c1.1264 7.9872 1.7408 16.0768 2.1504 24.1664-0.6144 15.5648-1.1264 31.6416-1.536 48.128v24.8832c0 30.1056-0.8192 61.44 0 92.16v23.6544c-0.9216 57.7536-2.4576 180.8384-3.072 231.1168A20.48 20.48 0 0 1 860.16 933.5808z" fill="#F15921" p-id="14094"></path><path d="M423.1168 142.0288C385.1264 167.936 301.4656 235.52 294.6048 241.152c-59.8016 49.5616-113.152 113.5616-174.8992 167.8336l-13.824 13.6192c-4.608 4.608-43.52 39.8336-49.664 44.7488a14.1312 14.1312 0 0 0 9.3184 24.8832c34.4064 4.608 86.528 5.5296 94.4128 6.9632a1096.9088 1096.9088 0 0 0 150.7328 8.192h30.72c83.968-7.5776 168.0384-0.7168 252.928 0.9216h28.3648c9.216 0 18.3296-1.024 27.3408-1.6384 28.9792-3.8912 57.0368-6.656 84.6848-8.6016l27.5456-1.7408 22.4256-0.9216 22.7328-0.7168c56.7296-1.1264 99.328-1.1264 151.3472-2.4576a14.1312 14.1312 0 0 0 9.3184-24.8832l-32.6656-28.4672-22.9376-20.48a706.3552 706.3552 0 0 0-36.0448-36.1472q-9.1136-8.6016-18.432-16.7936l-20.48-19.2512-21.504-18.5344c-40.0384-28.9792-76.0832-59.392-111.0016-90.3168l-20.48-18.5344C630.8864 174.08 589.1072 112.64 519.5776 83.968a24.7808 24.7808 0 0 0-14.7456-1.4336c-6.656 1.4336-74.1376 54.272-81.7152 59.4944z" fill="#136CA8" p-id="14095"></path><path d="M451.8912 711.8848A83.3536 83.3536 0 0 0 440.32 694.3744c-21.8112-25.088-55.1936-29.2864-88.576-12.4928a65.1264 65.1264 0 0 0-35.1232 42.5984 117.76 117.76 0 0 0-3.584 18.3296c-1.3312 68.9152-11.1616 128.8192-1.536 198.3488 54.1696 0.9216 103.5264 1.1264 153.6 0.7168v-10.24c-13.2096-69.4272 6.8608-149.6064-13.2096-219.7504z" fill="#F15921" p-id="14096"></path></svg>