<?xml version="1.0" standalone="no"?><!DOCTYPE svg PUBLIC "-//W3C//DTD SVG 1.1//EN" "http://www.w3.org/Graphics/SVG/1.1/DTD/svg11.dtd"><svg t="1595486654595" class="icon" viewBox="0 0 1024 1024" version="1.1" xmlns="http://www.w3.org/2000/svg" p-id="11905" xmlns:xlink="http://www.w3.org/1999/xlink" width="200" height="200"><defs><style type="text/css"></style></defs><path d="M950.9888 498.8928q0.7168-10.24 0.9216-19.8656a308.1216 308.1216 0 0 0-8.8064-78.5408q-2.8672-11.5712-6.656-22.9376C921.6 289.792 821.6576 225.28 736.0512 282.5216a243.5072 243.5072 0 0 0-24.2688 15.7696 409.6 409.6 0 0 0-39.936 34.2016 317.44 317.44 0 0 0 32.1536-96.256c9.0112-64.3072-27.136-128.6144-81.92-147.0464C541.0816 61.44 432.5376 61.44 378.2656 125.952c-63.5904 57.4464-22.3232 143.36 15.2576 216.576a225.28 225.28 0 0 0-39.8336-52.3264 234.0864 234.0864 0 0 0-20.48-17.5104 120.0128 120.0128 0 0 0-21.2992-17.6128c-30.0032-24.064-59.1872-27.648-86.1184-18.7392a114.688 114.688 0 0 0-26.112 12.8A383.2832 383.2832 0 0 0 102.4 360.448a257.6384 257.6384 0 0 0-13.312 27.8528 215.04 215.04 0 0 0-10.24 30.72 218.0096 218.0096 0 0 0-5.12 31.232 192.512 192.512 0 0 0-2.1504 23.1424C58.4704 606.72 221.3888 615.936 310.6816 589.2096h2.6624c-81.92 38.8096-177.4592 55.9104-174.08 156.2624a166.2976 166.2976 0 0 0 2.048 26.624 142.6432 142.6432 0 0 0 6.0416 24.4736A151.2448 151.2448 0 0 0 158.5152 819.2a145.2032 145.2032 0 0 0 32.8704 39.424c4.4032 4.9152 9.0112 10.24 13.7216 14.336a285.5936 285.5936 0 0 0 44.3392 35.5328 218.5216 218.5216 0 0 0 20.48 12.4928 192.3072 192.3072 0 0 0 70.5536 21.2992 139.0592 139.0592 0 0 0 25.1904 0 113.7664 113.7664 0 0 0 98.2016-74.752 273.92 273.92 0 0 0 10.9568-28.9792 658.7392 658.7392 0 0 0 19.6608-89.9072c1.9456-9.4208 3.9936-18.8416 6.5536-28.3648s5.4272-19.1488 9.0112-28.7744l-10.24-8.8064c-8.3968-5.8368-17.408-15.0528-29.2864-22.2208l-25.8048-18.944L368.64 585.5232l3.584-11.4688 5.12-16.2816 6.4512-20.48a179.3024 179.3024 0 0 0 10.24-194.56c10.24 20.48 20.48 39.8336 27.9552 57.5488h101.0688a122.88 122.88 0 0 0 90.112-7.2704l-9.728 10.24L634.88 501.76c19.456 21.7088 11.8784 61.44 21.8112 80.896l-73.9328 55.808c-78.5408 30.1056-97.3824 113.2544-78.336 184.32a215.7568 215.7568 0 0 0 6.7584 21.0944c2.56 6.8608 5.5296 13.6192 8.704 20.48 16.2816 77.5168 94.6176 101.2736 164.4544 81.92a178.4832 178.4832 0 0 0 29.184-11.0592A214.3232 214.3232 0 0 0 788.48 896.1024a217.6 217.6 0 0 0 21.9136-19.6608c71.68-70.5536 62.464-190.0544-34.816-235.52-6.0416-4.3008-12.1856-8.4992-18.5344-12.5952-4.4032-2.8672-8.9088-5.4272-13.312-8.192 5.2224 1.3312 10.24 2.6624 15.9744 3.7888C839.68 657.3056 966.4512 611.328 950.9888 498.8928z" fill="#F15921" p-id="11906"></path><path d="M736.0512 529.3056c14.7456 122.88-102.912 196.9152-202.4448 215.04-108.544 9.216-199.0656-73.5232-217.1904-174.08s27.136-202.1376 117.6576-248.0128a221.3888 221.3888 0 0 1 285.4912 125.8496 206.0288 206.0288 0 0 1 16.4864 81.2032z" fill="#136CA8" p-id="11907"></path><path d="M751.2064 438.4768c18.5344-15.1552 52.3264-6.656 43.9296-32.3584s-33.792 8.6016-50.688 8.6016c-16.896 8.6016-8.3968 25.7024 6.7584 23.7568zM760.0128 488.448c23.2448-9.6256 65.4336 7.5776 65.4336-9.6256 0-34.304-42.1888-17.1008-67.584-17.1008-8.3968 0-16.896 17.1008 2.1504 26.7264zM481.28 225.9968c16.1792 22.4256 7.168 59.0848 34.304 49.9712s-9.0112-36.7616-9.0112-55.0912c-9.0112-18.3296-27.136-9.216-25.2928 5.2224zM550.7072 228.4544c10.24 20.48-26.112 47.616 1.024 56.7296 18.1248 0 27.136-27.5456 27.136-45.9776s-9.0112-18.3296-28.16-10.8544zM260.5056 400.7936c16.6912 11.5712 41.8816 25.3952 53.9648 9.0112 13.7216-25.4976-32.4608-24.576-39.7312-35.2256-17.8176-3.2768-19.456 5.8368-14.2336 26.2144zM232.7552 464.7936c20.48 4.096 47.5136 13.312 47.5136-5.12 9.0112-27.5456-27.136-27.5456-45.2608-27.5456-27.136 9.216-18.1248 27.5456-2.2528 32.6656zM334.2336 772.4032c12.6976-4.9152 30.72-23.3472 21.8112-41.6768-9.0112-9.216-27.136 0-36.1472 9.216-18.1248 18.3296-18.1248 36.7616 14.4384 32.4608zM388.3008 812.1344c3.8912-20.48 13.0048-57.2416-5.12-57.2416-27.136-9.216-18.1248 27.5456-18.1248 45.9776s9.0112 18.3296 23.2448 11.264zM629.5552 764.3136c3.4816 16.896 12.5952 44.544 30.72 44.544 18.1248-9.216 9.0112-27.5456 0-45.9776-9.0112-9.216-18.1248-18.3296-30.72 1.4336zM686.08 742.0928c19.1488 11.5712 28.2624 57.5488 55.3984 39.1168 18.1248-27.5456-18.1248-36.7616-36.1472-55.0912-18.1248-9.216-27.136 0-19.1488 15.9744z" fill="#3A3635" p-id="11908"></path></svg>